<svg width="50" height="50" viewBox="0 0 50 50" fill="none" xmlns="http://www.w3.org/2000/svg">
<path fill-rule="evenodd" clip-rule="evenodd" d="M7.32273 42.6773C-2.44091 32.9136 -2.44091 17.0864 7.32273 7.32273C17.0864 -2.44091 32.9136 -2.44091 42.6773 7.32273C52.4409 17.0864 52.4409 32.9136 42.6773 42.6773C32.9136 52.4409 17.0864 52.4409 7.32273 42.6773ZM10.5364 39.4636C6.70037 35.6276 4.54533 30.4249 4.54533 25C4.54533 19.5751 6.70037 14.3724 10.5364 10.5364C14.3724 6.70037 19.5751 4.54533 25 4.54533C30.4249 4.54533 35.6276 6.70037 39.4636 10.5364C43.2996 14.3724 45.4547 19.5751 45.4547 25C45.4547 30.4249 43.2996 35.6276 39.4636 39.4636C35.6276 43.2996 30.4249 45.4547 25 45.4547C19.5751 45.4547 14.3724 43.2996 10.5364 39.4636Z" fill="url(#paint0_linear_688_92)"/>
<path d="M30.9599 35.375V13.625C30.9592 13.4048 30.8984 13.1889 30.7842 13.0006C30.67 12.8124 30.5065 12.6588 30.3115 12.5566C30.1165 12.4543 29.8973 12.4071 29.6775 12.4201C29.4577 12.4332 29.2456 12.5059 29.064 12.6305L13.3557 23.5055C12.7044 23.9562 12.7044 25.0413 13.3557 25.4932L29.064 36.3682C29.2452 36.4941 29.4574 36.5679 29.6776 36.5816C29.8978 36.5954 30.1175 36.5485 30.3129 36.4461C30.5084 36.3437 30.672 36.1898 30.786 36.0009C30.9001 35.8121 30.9602 35.5956 30.9599 35.375Z" fill="#6A0DAD"/>
<defs>
<linearGradient id="paint0_linear_688_92" x1="25" y1="0" x2="25" y2="50" gradientUnits="userSpaceOnUse">
<stop stop-color="#0D1B73"/>
<stop offset="0.5" stop-color="#6A0DAD"/>
<stop offset="1" stop-color="#00C2CB"/>
</linearGradient>
</defs>
</svg>
