<svg width="50" height="50" viewBox="0 0 50 50" fill="none" xmlns="http://www.w3.org/2000/svg">
<path fill-rule="evenodd" clip-rule="evenodd" d="M42.6773 42.6773C52.4409 32.9136 52.4409 17.0864 42.6773 7.32273C32.9136 -2.44091 17.0864 -2.44091 7.32273 7.32273C-2.44091 17.0864 -2.44091 32.9136 7.32273 42.6773C17.0864 52.4409 32.9136 52.4409 42.6773 42.6773ZM39.4636 39.4636C43.2996 35.6276 45.4547 30.4249 45.4547 25C45.4547 19.5751 43.2996 14.3724 39.4636 10.5364C35.6276 6.70037 30.4249 4.54533 25 4.54533C19.5751 4.54533 14.3724 6.70037 10.5364 10.5364C6.70037 14.3724 4.54533 19.5751 4.54533 25C4.54533 30.4249 6.70037 35.6276 10.5364 39.4636C14.3724 43.2996 19.5751 45.4547 25 45.4547C30.4249 45.4547 35.6276 43.2996 39.4636 39.4636Z" fill="url(#paint0_linear_688_93)"/>
<path d="M19.0401 35.375V13.625C19.0408 13.4048 19.1016 13.1889 19.2158 13.0006C19.33 12.8124 19.4935 12.6588 19.6885 12.5566C19.8835 12.4543 20.1027 12.4071 20.3225 12.4201C20.5423 12.4332 20.7544 12.5059 20.936 12.6305L36.6443 23.5055C37.2956 23.9562 37.2956 25.0413 36.6443 25.4932L20.936 36.3682C20.7548 36.4941 20.5426 36.5679 20.3224 36.5816C20.1022 36.5954 19.8825 36.5485 19.6871 36.4461C19.4916 36.3437 19.328 36.1898 19.214 36.0009C19.0999 35.8121 19.0398 35.5956 19.0401 35.375Z" fill="#6A0DAD"/>
<defs>
<linearGradient id="paint0_linear_688_93" x1="25" y1="0" x2="25" y2="50" gradientUnits="userSpaceOnUse">
<stop stop-color="#0D1B73"/>
<stop offset="0.5" stop-color="#6A0DAD"/>
<stop offset="1" stop-color="#00C2CB"/>
</linearGradient>
</defs>
</svg>
