<svg width="57" height="57" viewBox="0 0 57 57" fill="none" xmlns="http://www.w3.org/2000/svg">
<path d="M52.803 51.3056C52.2106 51.2571 51.6159 51.2423 51.0217 51.2611C51.0587 50.7985 51.0034 50.3332 50.8591 49.8921C50.7148 49.4511 50.4843 49.043 50.1811 48.6918C49.8778 48.3405 49.5079 48.0529 49.0926 47.8457C48.6773 47.6385 48.2251 47.5159 47.7621 47.4849C42.7224 47.4597 15.0353 47.4592 9.23361 47.4849C8.77058 47.5159 8.31831 47.6385 7.90305 47.8457C7.48779 48.0529 7.11781 48.3404 6.81457 48.6917C6.51134 49.043 6.28088 49.451 6.13659 49.8921C5.99229 50.3332 5.93702 50.7985 5.97399 51.2611L4.45102 51.2611C4.22714 51.2664 4.0135 51.356 3.8527 51.5118C3.69189 51.6677 3.59573 51.8784 3.58339 52.102C3.57104 52.3256 3.64342 52.5457 3.78609 52.7183C3.92876 52.8909 4.13125 53.0034 4.35318 53.0334C4.34873 53.0691 52.5137 53.0264 52.5446 53.0424C52.7551 53.0384 52.9574 52.96 53.1155 52.8211C53.2737 52.6821 53.3775 52.4916 53.4085 52.2833C53.4395 52.0751 53.3956 51.8626 53.2848 51.6836C53.174 51.5046 53.0033 51.3707 52.803 51.3056Z" fill="#D7D7D7"/>
<path d="M17.5617 45.6947V31.8099C17.5613 31.1935 17.3162 30.6025 16.8804 30.1667C16.4446 29.7308 15.8536 29.4858 15.2372 29.4854H11.5589C10.9425 29.4858 10.3515 29.7308 9.91569 30.1667C9.47985 30.6025 9.23481 31.1935 9.23438 31.8099V45.7036C9.30594 45.713 16.3679 45.6951 17.5617 45.6947Z" fill="#D7D7D7"/>
<path d="M21.6203 34.9805C21.3161 34.9799 21.0147 35.0394 20.7335 35.1555C20.4522 35.2717 20.1967 35.4422 19.9816 35.6574C19.7664 35.8725 19.5959 36.128 19.4797 36.4092C19.3636 36.6905 19.3041 36.9918 19.3047 37.2961V45.6947C21.3995 45.6872 25.5053 45.7 27.6231 45.6947V37.2961C27.6227 36.9914 27.5623 36.6897 27.4452 36.4084C27.3281 36.127 27.1568 35.8715 26.9409 35.6564C26.725 35.4414 26.4688 35.271 26.187 35.155C25.9052 35.039 25.6033 34.9797 25.2986 34.9805H21.6203Z" fill="#D7D7D7"/>
<path d="M31.6957 21.8438C31.0793 21.8442 30.4883 22.0893 30.0525 22.5251C29.6166 22.9609 29.3716 23.5519 29.3711 24.1683V45.6947C31.535 45.6959 35.5255 45.6939 37.6895 45.6947L37.6896 24.1683C37.6904 23.8636 37.6311 23.5617 37.5151 23.2799C37.3991 22.9981 37.2287 22.7419 37.0136 22.526C36.7986 22.3101 36.543 22.1387 36.2617 22.0217C35.9804 21.9046 35.6787 21.8441 35.374 21.8438H31.6957Z" fill="#D7D7D7"/>
<path d="M41.7581 29.4854C41.1418 29.4858 40.5508 29.7308 40.1149 30.1667C39.6791 30.6025 39.434 31.1935 39.4336 31.8099V45.6947C41.6045 45.7031 45.5915 45.6784 47.7609 45.7036V31.8099C47.7605 31.1935 47.5155 30.6025 47.0796 30.1667C46.6438 29.7308 46.0528 29.4858 45.4364 29.4854H41.7581Z" fill="#D7D7D7"/>
<path d="M13.3908 26.3238C13.8278 26.3232 14.2596 26.2292 14.6573 26.0481C15.055 25.867 15.4094 25.6029 15.6967 25.2736L19.313 26.7648C19.3 27.2285 19.3928 27.6892 19.5844 28.1117C19.776 28.5342 20.0614 28.9075 20.4189 29.2032C20.7763 29.499 21.1965 29.7094 21.6474 29.8185C22.0983 29.9276 22.5682 29.9325 23.0213 29.8329C23.4744 29.7332 23.8988 29.5317 24.2624 29.2435C24.626 28.9553 24.9191 28.5881 25.1195 28.1696C25.32 27.7512 25.4224 27.2927 25.4191 26.8287C25.4159 26.3648 25.3069 25.9077 25.1006 25.4922L32.1109 18.3967C32.6634 18.6876 33.2924 18.8001 33.9115 18.7188C34.5305 18.6375 35.1091 18.3663 35.5677 17.9426L40.7868 21.0417C40.4895 21.7125 40.4426 22.4678 40.6548 23.1703C40.8669 23.8727 41.324 24.4758 41.9429 24.87C42.5619 25.2642 43.3017 25.4233 44.028 25.3184C44.7542 25.2135 45.4188 24.8517 45.901 24.2985C46.3832 23.7454 46.651 23.0376 46.6558 22.3038C46.6605 21.5701 46.402 20.8589 45.927 20.2995C45.4521 19.7401 44.7923 19.3696 44.0674 19.2553C43.3426 19.141 42.6008 19.2905 41.9767 19.6766L36.4934 16.4205C36.6133 15.9378 36.6137 15.4332 36.4944 14.9504C36.3752 14.4676 36.14 14.0212 35.8093 13.6498C35.4785 13.2785 35.0621 12.9934 34.5963 12.8194C34.1305 12.6453 33.6292 12.5875 33.1359 12.651C32.6427 12.7145 32.1724 12.8973 31.7658 13.1836C31.3592 13.4699 31.0286 13.8511 30.8026 14.2941C30.5766 14.7371 30.4621 15.2285 30.469 15.7258C30.4759 16.2231 30.604 16.7111 30.8422 17.1477L23.8857 24.1886C23.2276 23.8119 22.4529 23.6938 21.7124 23.8572C20.972 24.0207 20.3189 24.4539 19.8805 25.0726L16.4268 23.6486C16.4457 23.5199 16.4549 23.3901 16.4545 23.26C16.4536 22.6553 16.2736 22.0645 15.9371 21.5621C15.6006 21.0596 15.1227 20.6682 14.5639 20.4372C14.0051 20.2062 13.3903 20.146 12.7973 20.2642C12.2043 20.3824 11.6596 20.6737 11.232 21.1012C10.8044 21.5288 10.5131 22.0735 10.3949 22.6666C10.2768 23.2596 10.337 23.8743 10.568 24.4332C10.799 24.992 11.1904 25.4698 11.6928 25.8063C12.1952 26.1428 12.7861 26.3229 13.3908 26.3238Z" fill="#D7D7D7"/>
<path d="M20.4616 19.4352C22.518 19.432 24.4893 18.6137 25.9434 17.1596C27.3975 15.7055 28.2158 13.7343 28.2189 11.6778C27.7924 1.37007 13.1181 1.38245 12.6953 11.6779C12.699 13.7357 13.5187 15.708 14.9746 17.1622C16.4305 18.6165 18.4038 19.4339 20.4616 19.4352ZM19.5709 7.71456C19.5494 7.58524 19.5563 7.45278 19.5912 7.3264C19.626 7.20001 19.688 7.08273 19.7728 6.98272C19.8575 6.8827 19.963 6.80234 20.082 6.74722C20.2009 6.6921 20.3305 6.66355 20.4616 6.66355C20.5927 6.66355 20.7222 6.6921 20.8411 6.74722C20.9601 6.80234 21.0656 6.8827 21.1504 6.98272C21.2351 7.08273 21.2971 7.20001 21.3319 7.3264C21.3668 7.45278 21.3737 7.58524 21.3522 7.71456C22.4607 7.9988 23.8705 10.351 22.1627 10.7695C22.0461 10.7826 21.9282 10.7723 21.8157 10.7394C21.7031 10.7066 21.5983 10.6516 21.5071 10.5779C21.416 10.5041 21.3404 10.413 21.2848 10.3098C21.2291 10.2066 21.1945 10.0934 21.183 9.97676C21.1671 9.83705 21.1111 9.70494 21.0218 9.59636C20.9324 9.48779 20.8136 9.4074 20.6795 9.3649C20.5455 9.3224 20.402 9.31962 20.2665 9.35688C20.1309 9.39414 20.009 9.46985 19.9155 9.57488C19.822 9.6799 19.7609 9.80975 19.7396 9.94873C19.7184 10.0877 19.7377 10.2299 19.7955 10.3581C19.8532 10.4863 19.9469 10.595 20.065 10.6712C20.1832 10.7473 20.321 10.7876 20.4616 10.7872C21.0422 10.7942 21.6025 11.0026 22.0465 11.3768C22.4905 11.751 22.7908 12.2679 22.8959 12.839C23.0011 13.4101 22.9046 14 22.623 14.5079C22.3415 15.0157 21.8922 15.41 21.3521 15.6233L21.3522 15.8014C21.35 15.9251 21.3223 16.0469 21.2707 16.1593C21.2192 16.2717 21.145 16.3722 21.0528 16.4546C20.9606 16.537 20.8524 16.5994 20.7349 16.638C20.6174 16.6765 20.4933 16.6904 20.3702 16.6787C20.2471 16.667 20.1278 16.63 20.0196 16.57C19.9115 16.51 19.817 16.4283 19.7419 16.3301C19.6669 16.2318 19.613 16.1191 19.5835 15.999C19.5541 15.8789 19.5498 15.7541 19.5709 15.6322C18.4321 15.347 17.0151 12.8947 18.7871 12.515C19.0224 12.5024 19.2533 12.5818 19.4312 12.7364C19.609 12.891 19.7198 13.1086 19.7401 13.3433C19.7505 13.4833 19.8015 13.6171 19.8868 13.7285C19.9721 13.8399 20.0881 13.924 20.2205 13.9705C20.3529 14.017 20.4959 14.0239 20.6322 13.9903C20.7684 13.9568 20.8919 13.8842 20.9875 13.7815C21.0831 13.6788 21.1467 13.5504 21.1705 13.4121C21.1943 13.2738 21.1772 13.1316 21.1214 13.0029C21.0656 12.8741 20.9734 12.7645 20.8562 12.6873C20.739 12.6102 20.6018 12.5689 20.4615 12.5685C19.8777 12.5631 19.3139 12.3546 18.8671 11.9788C18.4202 11.603 18.1182 11.0834 18.0128 10.5091C17.9075 9.9348 18.0053 9.34175 18.2897 8.8318C18.574 8.32184 19.027 7.92683 19.5709 7.71456Z" fill="#D7D7D7"/>
</svg>
