<svg width="58" height="50" viewBox="0 0 58 50" fill="none" xmlns="http://www.w3.org/2000/svg">
<path d="M15.9107 22.1105C15.9107 18.8966 13.3935 16.2773 10.3099 16.2773C7.22408 16.2773 4.70919 18.8966 4.70919 22.1105C4.70919 25.3245 7.22408 27.9437 10.3099 27.9437C13.3935 27.9426 15.9107 25.3245 15.9107 22.1105ZM7.21503 30.2704H13.406C14.4244 30.2704 15.3941 30.4946 16.2732 30.8922C14.1468 33.1292 12.8305 36.2027 12.8305 39.5807V45.2994H1.09772C0.493919 45.2994 2.965e-07 44.7838 2.965e-07 44.1562V37.7849C-0.00113281 33.6519 3.24557 30.2704 7.21503 30.2704ZM44.5929 30.2704H50.7838C54.7533 30.2704 58 33.6519 58 37.7861V44.1573C58 44.7862 57.505 45.3006 56.9023 45.3006H45.165V39.5819C45.165 36.2039 43.852 33.1304 41.7257 30.8934C42.6048 30.4946 43.5745 30.2704 44.5929 30.2704ZM47.6889 27.9426C44.6031 27.9426 42.0882 25.3233 42.0882 22.1093C42.0882 18.8954 44.6031 16.2761 47.6889 16.2761C50.7714 16.2761 53.2897 18.8954 53.2897 22.1093C53.2885 25.3245 50.7714 27.9426 47.6889 27.9426ZM24.706 29.1602H27.5675L26.6975 38.8586C26.6873 38.986 26.71 39.1028 26.7711 39.2126L28.4897 42.3828C28.5961 42.5799 28.7819 42.6943 29.0006 42.6943C29.2158 42.6943 29.4016 42.5811 29.5081 42.3828L31.2266 39.2126C31.2878 39.1017 31.3138 38.9848 31.3002 38.8586L30.4336 29.1602H33.2917C38.7962 29.1602 43.2981 33.8489 43.2981 39.5819V48.4143C43.2981 49.2838 42.6104 50 41.7733 50H36.9825V44.5691C36.9825 44.0311 36.5622 43.5957 36.0445 43.5957C35.5268 43.5957 35.1099 44.0311 35.1099 44.5691V50H22.8946V44.5691C22.8946 44.0311 22.4743 43.5957 21.9566 43.5957C21.4423 43.5957 21.022 44.0311 21.022 44.5691V50H16.2279C15.3896 50 14.7053 49.2838 14.7053 48.4143V39.5819C14.7031 33.8489 19.2049 29.1602 24.706 29.1602ZM28.9994 9.75978C33.277 9.75978 36.7639 13.3914 36.7639 17.8465C36.7639 22.3017 33.277 25.9333 28.9994 25.9333C24.7218 25.9333 21.235 22.3017 21.235 17.8465C21.235 13.3914 24.7218 9.75978 28.9994 9.75978ZM28.9994 5.36127C28.4829 5.36127 28.0614 4.92354 28.0614 4.38435V0.976922C28.0614 0.438907 28.4817 0 28.9994 0C29.5171 0 29.934 0.437727 29.934 0.976922V4.38553C29.934 4.92354 29.516 5.36127 28.9994 5.36127ZM23.7363 6.82665C23.2899 7.09802 22.7179 6.93756 22.4618 6.4727L20.8238 3.51951C20.5632 3.05465 20.7173 2.46236 21.1636 2.19217C21.61 1.92435 22.1786 2.08127 22.4381 2.54613L24.0761 5.49932C24.3333 5.963 24.1826 6.55883 23.7363 6.82665ZM18.6045 11.1968L15.7691 9.49077C15.3227 9.21941 15.1721 8.6283 15.4292 8.16343C15.6898 7.69857 16.2573 7.53811 16.7036 7.80948L19.5391 9.51555C19.9855 9.78338 20.1395 10.378 19.879 10.8429C19.623 11.3078 19.0509 11.4647 18.6045 11.1968ZM35.537 6.47152C35.2799 6.93638 34.7089 7.09684 34.2626 6.82547C33.8162 6.55765 33.6656 5.963 33.9227 5.49814L35.5608 2.54495C35.818 2.08009 36.3889 1.92317 36.8353 2.191C37.2816 2.46236 37.4323 3.05347 37.1751 3.51833L35.537 6.47152ZM42.2298 9.49195L39.3943 11.198C38.948 11.4659 38.3759 11.3089 38.1165 10.8441C37.8593 10.3792 38.01 9.78338 38.4563 9.51673L41.2918 7.81066C41.7382 7.53929 42.3102 7.69975 42.5697 8.16461C42.8268 8.6283 42.6761 9.22059 42.2298 9.49195Z" fill="#D7D7D7"/>
</svg>
