<svg width="47" height="47" viewBox="0 0 47 47" fill="none" xmlns="http://www.w3.org/2000/svg">
<g clip-path="url(#clip0_634_178)">
<path d="M23.5019 3.24138C25.906 3.24138 27.903 4.99739 28.2912 7.2931H31.6053V7.10199L29.8284 6.61491L29.697 6.19035C29.5818 5.81842 29.4263 5.44371 29.2337 5.0793L29.0259 4.68639L29.9407 3.08271L28.5226 1.6654L26.9189 2.581L26.5245 2.37168C26.164 2.18057 25.7905 2.02428 25.415 1.90835L24.9896 1.77777L24.5041 0H22.4996L22.0134 1.77698L21.588 1.90755C21.2125 2.02428 20.839 2.17978 20.4785 2.37089L20.0848 2.5802L18.4812 1.66461L17.063 3.08192L17.9779 4.6856L17.7701 5.0785C17.5774 5.44292 17.4219 5.81763 17.3068 6.18956L17.1754 6.61412L15.3984 7.10199V7.2931H18.7126C19.1008 4.99739 21.0978 3.24138 23.5019 3.24138Z" fill="#D7D7D7"/>
<path d="M34.0338 10.5343V8.91357H12.9648V10.5343H34.0338Z" fill="#D7D7D7"/>
<path d="M20.375 7.29334H26.6275C26.2654 5.89858 25.0068 4.8623 23.5012 4.8623C21.9957 4.8623 20.737 5.89858 20.375 7.29334Z" fill="#D7D7D7"/>
<path d="M21.8789 21.0688H25.1203V24.3102H21.8789V21.0688Z" fill="#D7D7D7"/>
<path d="M23.5001 29.1724C19.4793 29.1724 16.207 32.4438 16.207 36.4655C16.207 40.4871 19.4793 43.7586 23.5001 43.7586C27.521 43.7586 30.7932 40.4871 30.7932 36.4655C30.7932 32.4438 27.521 29.1724 23.5001 29.1724ZM23.5001 35.6551C24.8403 35.6551 25.9312 36.746 25.9312 38.0862C25.9312 39.141 25.2514 40.0325 24.3105 40.368V42.1379H22.6898V40.368C21.7489 40.0325 21.0691 39.141 21.0691 38.0862H22.6898C22.6898 38.5333 23.0538 38.8965 23.5001 38.8965C23.9465 38.8965 24.3105 38.5333 24.3105 38.0862C24.3105 37.639 23.9465 37.2758 23.5001 37.2758C22.16 37.2758 21.0691 36.1849 21.0691 34.8448C21.0691 33.7899 21.7489 32.8984 22.6898 32.5629V30.7931H24.3105V32.5629C25.2514 32.8984 25.9312 33.7899 25.9312 34.8448H24.3105C24.3105 34.3977 23.9465 34.0344 23.5001 34.0344C23.0538 34.0344 22.6898 34.3977 22.6898 34.8448C22.6898 35.2919 23.0538 35.6551 23.5001 35.6551Z" fill="#D7D7D7"/>
<path d="M43.759 30.9422V22.6895H32.0787L30.458 21.0688H26.7418V25.9309H20.259V21.0688H16.5428L14.9221 22.6895H3.24178V30.9422C2.30087 31.2777 1.62109 32.1691 1.62109 33.224C1.62109 34.5642 2.71197 35.6551 4.05213 35.6551C5.39228 35.6551 6.48316 34.5642 6.48316 33.224C6.48316 32.1691 5.80339 31.2777 4.86247 30.9422V24.3102H13.3086C12.5671 25.0719 12.1556 26.071 12.1556 27.1342V44.3702C13.0431 45.9976 14.7251 46.9999 16.5899 46.9999H30.4109C32.2757 46.9999 33.9577 45.9976 34.8452 44.3702V27.1342C34.8452 26.0702 34.4337 25.0711 33.6922 24.3102H42.1383V30.9422C41.1974 31.2777 40.5176 32.1691 40.5176 33.224C40.5176 34.5642 41.6085 35.6551 42.9487 35.6551C44.2888 35.6551 45.3797 34.5642 45.3797 33.224C45.3797 32.1691 44.6999 31.2777 43.759 30.9422ZM4.05213 34.0344C3.60581 34.0344 3.24178 33.6711 3.24178 33.224C3.24178 32.7769 3.60581 32.4137 4.05213 32.4137C4.49845 32.4137 4.86247 32.7769 4.86247 33.224C4.86247 33.6711 4.49845 34.0344 4.05213 34.0344ZM23.5004 45.3792C18.5857 45.3792 14.5866 41.3801 14.5866 36.4654C14.5866 31.5507 18.5857 27.5516 23.5004 27.5516C28.4151 27.5516 32.4142 31.5507 32.4142 36.4654C32.4142 41.3801 28.4151 45.3792 23.5004 45.3792ZM42.9487 34.0344C42.5024 34.0344 42.1383 33.6711 42.1383 33.224C42.1383 32.7769 42.5024 32.4137 42.9487 32.4137C43.395 32.4137 43.759 32.7769 43.759 33.224C43.759 33.6711 43.395 34.0344 42.9487 34.0344Z" fill="#D7D7D7"/>
<path d="M44.569 16.2068C43.5141 16.2068 42.6226 16.8866 42.2871 17.8275H33.2249L33.2241 16.2199H29.0501L30.4576 14.5861H42.1379V6.3335C43.0788 5.99797 43.7586 5.10651 43.7586 4.05164C43.7586 2.71148 42.6677 1.62061 41.3276 1.62061C39.9874 1.62061 38.8966 2.71148 38.8966 4.05164C38.8966 5.10651 39.5763 5.99797 40.5172 6.3335V12.9654H32.0783L32.8886 12.1551H14.1114L14.9217 12.9654H6.48276V6.3335C7.42368 5.99797 8.10345 5.10651 8.10345 4.05164C8.10345 2.71148 7.01257 1.62061 5.67241 1.62061C4.33226 1.62061 3.24138 2.71148 3.24138 4.05164C3.24138 5.10651 3.92115 5.99797 4.86207 6.3335V14.5861H16.5424L17.9499 16.2199H13.7759V17.8275H4.7129C4.37737 16.8866 3.48591 16.2068 2.43103 16.2068C1.09088 16.2068 0 17.2977 0 18.6378C0 19.978 1.09088 21.0689 2.43103 21.0689C3.48591 21.0689 4.37737 20.3891 4.7129 19.4482H13.7759V19.4419H33.2241V19.4482H42.2871C42.6226 20.3891 43.5141 21.0689 44.569 21.0689C45.9091 21.0689 47 19.978 47 18.6378C47 17.2977 45.9091 16.2068 44.569 16.2068ZM41.3276 3.24129C41.7739 3.24129 42.1379 3.60453 42.1379 4.05164C42.1379 4.49875 41.7739 4.86198 41.3276 4.86198C40.8813 4.86198 40.5172 4.49875 40.5172 4.05164C40.5172 3.60453 40.8813 3.24129 41.3276 3.24129ZM5.67241 4.86198C5.22609 4.86198 4.86207 4.49875 4.86207 4.05164C4.86207 3.60453 5.22609 3.24129 5.67241 3.24129C6.11874 3.24129 6.48276 3.60453 6.48276 4.05164C6.48276 4.49875 6.11874 4.86198 5.67241 4.86198ZM2.43103 19.4482C1.98471 19.4482 1.62069 19.085 1.62069 18.6378C1.62069 18.1907 1.98471 17.8275 2.43103 17.8275C2.87736 17.8275 3.24138 18.1907 3.24138 18.6378C3.24138 19.085 2.87736 19.4482 2.43103 19.4482ZM44.569 19.4482C44.1226 19.4482 43.7586 19.085 43.7586 18.6378C43.7586 18.1907 44.1226 17.8275 44.569 17.8275C45.0153 17.8275 45.3793 18.1907 45.3793 18.6378C45.3793 19.085 45.0153 19.4482 44.569 19.4482Z" fill="#D7D7D7"/>
</g>
<defs>
<clipPath id="clip0_634_178">
<rect width="47" height="47" fill="white"/>
</clipPath>
</defs>
</svg>
