<svg width="53" height="53" viewBox="0 0 53 53" fill="none" xmlns="http://www.w3.org/2000/svg">
<path d="M38.0938 24.0156C38.6552 24.0156 39.2051 24.057 39.75 24.1216V4.14062C39.75 3.6835 39.379 3.3125 38.9219 3.3125H4.14062C3.6835 3.3125 3.3125 3.6835 3.3125 4.14062V45.5469C3.3125 46.004 3.6835 46.375 4.14062 46.375H26.7269C25.0292 44.0496 24.0156 41.1926 24.0156 38.0938C24.0156 30.3193 30.3193 24.0156 38.0938 24.0156ZM27.9492 24.3469C27.9492 24.6218 27.7273 24.8438 27.4523 24.8438H25.9617C25.6868 24.8438 25.4648 24.6218 25.4648 24.3469V19.3069C25.4648 19.032 25.6868 18.81 25.9617 18.81H27.4523C27.7273 18.81 27.9492 19.032 27.9492 19.3069V24.3469ZM33.125 21.0344C33.125 21.3093 32.9031 21.5312 32.6281 21.5312H31.1375C30.8626 21.5312 30.6406 21.3093 30.6406 21.0344V17.5331C30.6406 17.2581 30.8626 17.0362 31.1375 17.0362H32.6281C32.9031 17.0362 33.125 17.2581 33.125 17.5331V21.0344ZM9.9375 13.9837C9.9375 13.7088 10.1594 13.4868 10.4344 13.4868H15.8172C15.9182 13.4868 16.0159 13.457 16.0988 13.3991L21.2513 9.86462C21.4203 9.74869 21.6439 9.74869 21.8128 9.86462L26.4271 13.0297C26.5961 13.1457 26.8197 13.1457 26.9886 13.0297L31.795 9.73378C32.0219 9.57809 32.33 9.63606 32.4857 9.86297L33.3287 11.0919C33.4844 11.3188 33.4264 11.6269 33.1995 11.7826L26.9886 16.0424C26.8197 16.1584 26.5961 16.1584 26.4271 16.0424L21.8128 12.879C21.6439 12.7631 21.4203 12.7631 21.2513 12.879L16.8689 15.8834C16.7861 15.9398 16.6884 15.9712 16.5873 15.9712H10.4344C10.1594 15.9712 9.9375 15.7493 9.9375 15.4743V13.9837ZM17.5977 19.3069V24.3469C17.5977 24.6218 17.3757 24.8438 17.1008 24.8438H15.6102C15.3352 24.8438 15.1133 24.6218 15.1133 24.3469V19.3069C15.1133 19.032 15.3352 18.81 15.6102 18.81H17.1008C17.3757 18.81 17.5977 19.032 17.5977 19.3069ZM9.9375 19.3069C9.9375 19.032 10.1594 18.81 10.4344 18.81H11.925C12.1999 18.81 12.4219 19.032 12.4219 19.3069V24.3469C12.4219 24.6218 12.1999 24.8438 11.925 24.8438H10.4344C10.1594 24.8438 9.9375 24.6218 9.9375 24.3469V19.3069ZM19.875 38.8391C19.875 39.114 19.6531 39.3359 19.3781 39.3359H10.4344C10.1594 39.3359 9.9375 39.114 9.9375 38.8391V37.3484C9.9375 37.0735 10.1594 36.8516 10.4344 36.8516H19.3781C19.6531 36.8516 19.875 37.0735 19.875 37.3484V38.8391ZM19.875 32.2141C19.875 32.489 19.6531 32.7109 19.3781 32.7109H10.4344C10.1594 32.7109 9.9375 32.489 9.9375 32.2141V30.7234C9.9375 30.4485 10.1594 30.2266 10.4344 30.2266H19.3781C19.6531 30.2266 19.875 30.4485 19.875 30.7234V32.2141ZM22.7734 24.3469C22.7734 24.6218 22.5515 24.8438 22.2766 24.8438H20.7859C20.511 24.8438 20.2891 24.6218 20.2891 24.3469V17.5331C20.2891 17.2581 20.511 17.0362 20.7859 17.0362H22.2766C22.5515 17.0362 22.7734 17.2581 22.7734 17.5331V24.3469Z" fill="#D7D7D7"/>
<path d="M42.2065 36.8516H33.9766C34.2366 30.4071 36.4659 26.5 38.0923 26.5C39.7188 26.5 41.9481 30.4071 42.2065 36.8516Z" fill="#D7D7D7"/>
<path d="M44.6926 36.8514C44.5485 33.3286 43.7916 29.8207 42.4766 27.3628C46.3389 28.9429 49.1595 32.5419 49.62 36.8514H44.6926Z" fill="#D7D7D7"/>
<path d="M33.9805 39.3359H42.2104C41.9503 45.7804 39.721 49.6875 38.0946 49.6875C36.4682 49.6875 34.2388 45.7804 33.9805 39.3359Z" fill="#D7D7D7"/>
<path d="M44.6904 39.3359H49.6161C49.1573 43.6455 46.3367 47.2445 42.4727 48.8246C43.7894 46.3667 44.5463 42.8588 44.6904 39.3359Z" fill="#D7D7D7"/>
<path d="M31.4938 39.3359C31.6378 42.8588 32.3947 46.3667 33.7098 48.8246C29.8474 47.2445 27.0268 43.6455 26.5664 39.3359H31.4938Z" fill="#D7D7D7"/>
<path d="M33.7121 27.3628C32.397 29.8207 31.6401 33.3269 31.496 36.8514H26.5703C27.0291 32.5419 29.8497 28.9429 33.7121 27.3628Z" fill="#D7D7D7"/>
</svg>
