<svg width="44" height="44" viewBox="0 0 44 44" fill="none" xmlns="http://www.w3.org/2000/svg">
<g clip-path="url(#clip0_634_187)">
<path d="M10.9833 19.7806C10.396 19.1933 10.0726 18.4147 10.0726 17.5882C10.0726 16.7616 10.396 15.983 10.9833 15.3957C11.5706 14.8084 12.3492 14.4851 13.1757 14.4851C14.0023 14.4851 14.7809 14.8084 15.3682 15.3957C15.9555 15.983 16.2789 16.7616 16.2789 17.5882C16.2789 18.4147 15.9555 19.1933 15.3682 19.7806C14.7809 20.3679 14.0023 20.6913 13.1757 20.6913C12.3492 20.6913 11.5706 20.3679 10.9833 19.7806ZM43.3761 37.6269C43.3289 37.8029 43.2137 37.9529 43.0559 38.044L39.1315 40.3095C39.0233 40.372 38.9053 40.4017 38.7887 40.4017C38.5513 40.4017 38.3204 40.2784 38.1932 40.058L32.7005 30.5439V40.2188C32.7005 41.9247 31.3137 43.3125 29.6091 43.3125H3.85547C2.14952 43.3125 0.761719 41.9247 0.761719 40.2188V7.11574C0.761719 5.41117 2.14952 4.02439 3.85547 4.02439H8.44006V3.43727C8.44006 3.05786 8.74763 2.75029 9.12705 2.75029H11.3316V1.374C11.3316 0.994582 11.6392 0.687012 12.0186 0.687012H21.446C21.8254 0.687012 22.133 0.994582 22.133 1.374V2.75037H24.3376C24.7171 2.75037 25.0246 3.05794 25.0246 3.43736V4.02448H29.6092C31.3138 4.02448 32.7006 5.41125 32.7006 7.11582V11.5797C32.8683 11.392 33.0661 11.2299 33.29 11.1006C34.4365 10.44 35.9084 10.8345 36.5714 11.9797L39.9361 17.8075C40.2564 18.3622 40.3411 19.01 40.1745 19.6314C40.0081 20.2528 39.6109 20.7715 39.0561 21.0918C39.0559 21.0918 39.0557 21.0919 39.0556 21.092C38.6879 21.3038 38.2789 21.412 37.8637 21.412C37.6537 21.412 37.4421 21.3844 37.2333 21.3284C36.8892 21.2362 36.5771 21.0734 36.3127 20.8528L34.5211 21.8867L43.3074 37.1056C43.3985 37.2634 43.4232 37.4509 43.376 37.6269H43.3761ZM33.5999 13.6978L36.9641 19.5248C37.1 19.7607 37.3218 19.9297 37.5889 20.0012C37.8563 20.073 38.1336 20.0375 38.3696 19.9014C38.6063 19.7646 38.776 19.5424 38.8474 19.2756C38.9189 19.0087 38.883 18.7312 38.7461 18.4943L35.382 12.6673C35.1914 12.3381 34.8442 12.1536 34.4881 12.1536C34.314 12.1536 34.1376 12.1977 33.9764 12.2906C33.74 12.427 33.5701 12.6494 33.4986 12.9163C33.427 13.1832 33.463 13.4607 33.5998 13.6977L33.5999 13.6978ZM24.242 19.7341L27.0563 24.6087L29.3084 23.3089C29.3105 23.3077 29.3123 23.3062 29.3145 23.305C29.3165 23.3038 29.3188 23.3029 29.3208 23.3017L33.2244 21.0488C33.2293 21.0458 33.2338 21.0423 33.2389 21.0394C33.2439 21.0365 33.2492 21.0343 33.2543 21.0316L35.4995 19.7357L32.6848 14.8605L24.2421 19.734L24.242 19.7341ZM17.1441 26.4529C16.7647 26.4529 16.4571 26.7605 16.4571 27.1399C16.4571 27.5193 16.7647 27.8268 17.1441 27.8268H21.2049C21.5843 27.8268 21.8919 27.5193 21.8919 27.1399C21.8919 26.7605 21.5843 26.4529 21.2049 26.4529H17.1441ZM16.4571 34.0898C16.4571 34.4692 16.7647 34.7768 17.1441 34.7768H25.4583C25.8377 34.7768 26.1453 34.4692 26.1453 34.0898C26.1453 33.7104 25.8377 33.4028 25.4583 33.4028H17.1441C16.7647 33.4028 16.4571 33.7104 16.4571 34.0898ZM26.1419 25.7727L22.778 19.9463C22.6412 19.7094 22.4189 19.5395 22.1519 19.468C22.0622 19.4439 21.9713 19.432 21.8811 19.432C21.7031 19.432 21.5279 19.4784 21.3706 19.5692C21.1347 19.7058 20.9648 19.9284 20.893 20.1956C20.8213 20.4621 20.8569 20.7384 20.993 20.9735L24.3577 26.8013C24.4945 27.0382 24.7168 27.2081 24.9838 27.2796C25.2505 27.351 25.5277 27.3153 25.7645 27.1787C26.2554 26.8943 26.4248 26.2636 26.142 25.7727H26.1419ZM9.10659 12.8735L8.46112 13.5189C8.0799 13.9001 8.04174 14.4802 8.36555 14.9994L8.70054 15.5312C8.64863 15.6447 8.60068 15.761 8.55702 15.8797L7.94609 16.0189C7.34943 16.1529 6.96383 16.5901 6.96383 17.1325V18.0436C6.96383 18.5862 7.34943 19.0233 7.94394 19.1568L8.55702 19.2965C8.60068 19.4153 8.64855 19.5316 8.70054 19.6451L8.36384 20.1795C8.04174 20.6961 8.0799 21.2762 8.46103 21.6572L9.10659 22.3028C9.48773 22.6839 10.0678 22.722 10.587 22.3983L11.1188 22.0633C11.2323 22.1152 11.3486 22.1631 11.4674 22.2068L11.6066 22.8177C11.7406 23.4144 12.1777 23.8 12.7203 23.8H13.6314C14.1739 23.8 14.6111 23.4144 14.7445 22.8199L14.8843 22.2068C15.003 22.1631 15.1193 22.1153 15.2328 22.0633L15.7673 22.3999C16.2839 22.7222 16.8639 22.6839 17.245 22.3028L17.8906 21.6572C18.2716 21.2761 18.3097 20.6962 17.986 20.1769L17.651 19.6451C17.7029 19.5316 17.7508 19.4154 17.7944 19.2966L18.4053 19.1574C19.002 19.0234 19.3876 18.5863 19.3876 18.0437V17.1326C19.3876 16.5901 19.002 16.1529 18.4075 16.0195L17.7944 15.8797C17.7507 15.761 17.7029 15.6447 17.6509 15.5312L17.9876 14.9966C18.3097 14.4801 18.2716 13.9001 17.8904 13.519L17.2449 12.8735C16.8637 12.4923 16.2838 12.4543 15.7645 12.778L15.2327 13.113C15.1192 13.0611 15.0029 13.0132 14.8842 12.9695L14.745 12.3586C14.611 11.7619 14.1739 11.3763 13.6314 11.3763H12.7203C12.1777 11.3763 11.7406 11.7619 11.6071 12.3564L11.4674 12.9695C11.3486 13.0131 11.2323 13.061 11.1189 13.1129L10.5843 12.7762C10.0677 12.4542 9.48773 12.4924 9.10668 12.8734L9.10659 12.8735ZM14.3435 25.0634C14.0752 24.7951 13.6403 24.7951 13.372 25.0634L10.6615 27.7737L9.31009 26.5029C9.03363 26.243 8.59896 26.2563 8.339 26.5328C8.07912 26.8092 8.09244 27.2439 8.36891 27.5039L10.2057 29.2311C10.3382 29.3556 10.5073 29.4176 10.6763 29.4176C10.8523 29.4176 11.0282 29.3503 11.1621 29.2164L14.3436 26.0349C14.6119 25.7666 14.6118 25.3317 14.3435 25.0634ZM14.3435 32.0134C14.0752 31.7451 13.6403 31.7451 13.372 32.0134L10.6619 34.7235L9.31044 33.4509C9.03415 33.1907 8.59948 33.2038 8.33934 33.4801C8.0793 33.7563 8.09227 34.191 8.36856 34.4512L10.2054 36.1807C10.3379 36.3055 10.5071 36.3676 10.6762 36.3676C10.8522 36.3676 11.0282 36.3003 11.162 36.1664L14.3435 32.9849C14.6118 32.7166 14.6118 32.2817 14.3435 32.0134ZM25.0245 6.93544H29.1024C29.4819 6.93544 29.7894 7.24301 29.7894 7.62243V14.9456L31.3266 14.0583V7.11574C31.3266 6.16871 30.5562 5.39836 29.6092 5.39836H25.0246V6.93553L25.0245 6.93544ZM9.81403 9.3325H23.6507V4.12425H21.446C21.0666 4.12425 20.759 3.81668 20.759 3.43727V2.06098H12.7056V3.43736C12.7056 3.81677 12.398 4.12434 12.0186 4.12434H9.81403V9.3325ZM31.3266 28.1642L29.7894 25.5017V39.7146C29.7894 40.094 29.4819 40.4016 29.1024 40.4016H4.35975C3.98034 40.4016 3.67277 40.094 3.67277 39.7146V7.62243C3.67277 7.24301 3.98034 6.93544 4.35975 6.93544H8.44006V5.39828H3.85547C2.90715 5.39828 2.1356 6.16871 2.1356 7.11565V40.2189C2.1356 41.1672 2.90715 41.9387 3.85547 41.9387H29.6091C30.5562 41.9387 31.3265 41.1672 31.3265 40.2189L31.3266 28.1642Z" fill="#D7D7D7"/>
</g>
<defs>
<clipPath id="clip0_634_187">
<rect width="44" height="44" fill="white"/>
</clipPath>
</defs>
</svg>
