<svg width="56" height="56" viewBox="0 0 56 56" fill="none" xmlns="http://www.w3.org/2000/svg">
<path d="M29.9748 23.8961C29.9451 23.8445 29.9022 23.8086 29.8698 23.7587C29.7487 23.7133 29.6392 23.6413 29.5496 23.548C29.46 23.4548 29.3924 23.3426 29.3518 23.2197C29.0964 23.0245 28.8022 22.8862 28.4889 22.8141C28.1756 22.7421 27.8506 22.7379 27.5355 22.802C27.2205 22.8661 26.9229 22.9969 26.6627 23.1856C26.4024 23.3743 26.1856 23.6166 26.0268 23.8961L11.4852 49.0795C11.285 49.4261 11.1797 49.8193 11.1797 50.2196C11.1797 50.6199 11.2851 51.0131 11.4852 51.3598C11.6854 51.7064 11.9732 51.9943 12.3199 52.1944C12.6665 52.3945 13.0598 52.4999 13.4601 52.4998H42.5389C42.9392 52.4999 43.3324 52.3945 43.6791 52.1944C44.0258 51.9943 44.3136 51.7064 44.5138 51.3598C44.7139 51.0131 44.8193 50.6199 44.8193 50.2196C44.8193 49.8193 44.7139 49.4261 44.5138 49.0795L29.9748 23.8961ZM27.9982 48.8843C27.525 48.8845 27.0624 48.7444 26.6689 48.4816C26.2754 48.2188 25.9686 47.8453 25.7874 47.4082C25.6062 46.9711 25.5587 46.49 25.6509 46.0259C25.7431 45.5618 25.9709 45.1355 26.3054 44.8008C26.6399 44.4662 27.0662 44.2383 27.5303 44.1459C27.9944 44.0535 28.4754 44.1008 28.9126 44.2819C29.3498 44.4629 29.7234 44.7695 29.9863 45.1629C30.2492 45.5564 30.3896 46.0189 30.3896 46.4921C30.3891 47.1263 30.137 47.7343 29.6887 48.1829C29.2403 48.6314 28.6324 48.8837 27.9982 48.8843ZM30.0544 42.5642C30.0358 42.7832 29.9354 42.9871 29.7733 43.1354C29.6112 43.2837 29.3992 43.3656 29.1794 43.3648H26.8143C26.5946 43.3656 26.3826 43.2837 26.2205 43.1354C26.0584 42.9871 25.958 42.7832 25.9393 42.5642L25.0162 31.6923C25.0059 31.5713 25.0208 31.4495 25.0602 31.3346C25.0995 31.2197 25.1623 31.1143 25.2446 31.025C25.3269 30.9357 25.4269 30.8645 25.5382 30.8159C25.6495 30.7674 25.7697 30.7425 25.8912 30.743H30.1148C30.2362 30.7425 30.3565 30.7674 30.4678 30.8159C30.5791 30.8645 30.6791 30.9357 30.7614 31.025C30.8437 31.1143 30.9065 31.2197 30.9458 31.3346C30.9852 31.4495 31.0001 31.5713 30.9898 31.6923L30.0544 42.5642Z" fill="#D7D7D7"/>
<path d="M27.6208 41.615H28.3846L29.1616 32.4932H26.8438L27.6208 41.615Z" fill="#D7D7D7"/>
<path d="M42.1075 18.5439C41.7383 16.7792 41.0379 15.1004 40.0433 13.5966C39.9322 13.4284 39.8826 13.227 39.9029 13.0265C39.9231 12.8259 40.012 12.6385 40.1545 12.4959L42.2991 10.3512L39.1333 7.175L36.9896 9.31875C36.8475 9.46078 36.661 9.5496 36.4612 9.57032C36.2614 9.59103 36.0605 9.54237 35.8923 9.4325C34.3886 8.43938 32.7097 7.74127 30.9451 7.37537C30.7475 7.33503 30.5698 7.22764 30.4423 7.07138C30.3147 6.91512 30.2451 6.71959 30.2451 6.51787V3.5H25.7651V6.52138C25.7651 6.72309 25.6955 6.91862 25.5679 7.07488C25.4404 7.23114 25.2627 7.33853 25.0651 7.37887C23.2979 7.74725 21.6159 8.44544 20.1073 9.43687C19.9391 9.54629 19.7383 9.59453 19.5387 9.57351C19.3391 9.55248 19.1527 9.46346 19.011 9.32137L16.876 7.17937L13.705 10.3512L15.8487 12.4959C15.9912 12.6385 16.0801 12.8259 16.1003 13.0265C16.1206 13.227 16.071 13.4284 15.9598 13.5966C14.9652 15.0976 14.268 16.7756 13.9062 18.5395C13.8659 18.7371 13.7585 18.9148 13.6022 19.0423C13.446 19.1699 13.2504 19.2395 13.0487 19.2395H10.0273V23.7204H13.0487C13.2504 23.7203 13.446 23.79 13.6022 23.9175C13.7585 24.0451 13.8659 24.2227 13.9062 24.4204C14.268 26.1843 14.9652 27.8623 15.9598 29.3632C16.071 29.5314 16.1206 29.7329 16.1003 29.9334C16.0801 30.134 15.9912 30.3214 15.8487 30.464L13.7058 32.6077L16.8777 35.7735L17.5235 35.1278L20.4197 30.1123C19.1839 29.0397 18.1934 27.7138 17.5153 26.2245C16.8373 24.7353 16.4876 23.1176 16.4901 21.4812C16.4901 18.4282 17.7029 15.5002 19.8617 13.3414C22.0206 11.1826 24.9486 9.96975 28.0016 9.96975C31.0546 9.96975 33.9826 11.1826 36.1415 13.3414C38.3003 15.5002 39.5131 18.4282 39.5131 21.4812C39.5155 23.1171 39.1661 24.7343 38.4885 26.2232C37.811 27.7121 36.8211 29.0378 35.5861 30.1105L38.4736 35.112L39.1342 35.7726L42.2982 32.6086L40.1545 30.464C40.012 30.3214 39.9231 30.134 39.9029 29.9334C39.8826 29.7329 39.9322 29.5314 40.0433 29.3632C41.0383 27.8584 41.7387 26.1784 42.1075 24.4125C42.1488 24.216 42.2566 24.0397 42.4125 23.9132C42.5685 23.7867 42.7633 23.7177 42.9641 23.7178H45.9758V19.2386H42.9641C42.7633 19.2387 42.5685 19.1697 42.4125 19.0432C42.2566 18.9167 42.1488 18.7404 42.1075 18.5439Z" fill="#D7D7D7"/>
<path d="M27.9986 45.8501C27.8715 45.8499 27.7473 45.8874 27.6415 45.9579C27.5358 46.0284 27.4534 46.1286 27.4046 46.246C27.3559 46.3633 27.343 46.4925 27.3677 46.6171C27.3924 46.7417 27.4535 46.8563 27.5433 46.9462C27.6331 47.0361 27.7475 47.0973 27.8721 47.1222C27.9967 47.147 28.1259 47.1344 28.2433 47.0858C28.3607 47.0372 28.4611 46.9549 28.5317 46.8493C28.6023 46.7436 28.64 46.6194 28.64 46.4923C28.64 46.3222 28.5724 46.1589 28.4522 46.0385C28.3319 45.9181 28.1688 45.8503 27.9986 45.8501Z" fill="#D7D7D7"/>
<path d="M30.196 19.4679C29.964 19.4679 29.7414 19.3757 29.5773 19.2116C29.4132 19.0475 29.321 18.8249 29.321 18.5929C29.3224 18.4781 29.301 18.3643 29.258 18.258C29.2149 18.1517 29.1511 18.0549 29.0704 17.9735C28.9896 17.8921 28.8934 17.8275 28.7874 17.7836C28.6814 17.7397 28.5678 17.7174 28.4531 17.7179H28.0296C28.0173 17.7179 28.0077 17.7249 27.9954 17.7249C27.9832 17.7249 27.9735 17.7187 27.9613 17.7179H27.5466C27.3157 17.7197 27.0949 17.8127 26.9324 17.9766C26.7698 18.1405 26.6785 18.362 26.6786 18.5929V19.7304C26.6802 19.9601 26.7721 20.1801 26.9345 20.3427C27.0969 20.5052 27.3168 20.5974 27.5466 20.5992H28.4531C28.9611 20.5991 29.458 20.7484 29.8819 21.0284C30.3058 21.3084 30.6381 21.7069 30.8374 22.1742C31.0921 22.429 31.3121 22.7161 31.4919 23.0282L34.6953 28.5757C36.1178 27.2356 37.1049 25.4992 37.5289 23.5915C37.9529 21.6838 37.7941 19.6927 37.0731 17.8762C36.3522 16.0598 35.1023 14.5018 33.4855 13.4041C31.8686 12.3064 29.9593 11.7196 28.0051 11.7197C25.4168 11.7225 22.9353 12.7514 21.1045 14.5809C19.2736 16.4104 18.2429 18.8912 18.2383 21.4795C18.2357 22.8082 18.5068 24.1233 19.0347 25.3427C19.5627 26.5621 20.3361 27.6597 21.3069 28.567L24.5112 23.0177C24.8278 22.4696 25.2694 22.004 25.8001 21.6589C25.5262 21.4158 25.3068 21.1177 25.156 20.784C25.0052 20.4503 24.9265 20.0886 24.9251 19.7225V18.585C24.9293 17.9656 25.1524 17.3676 25.5549 16.8968C25.9575 16.4261 26.5136 16.1128 27.1248 16.0125V15.2442C27.1248 15.0122 27.217 14.7896 27.3811 14.6255C27.5452 14.4614 27.7677 14.3692 27.9998 14.3692C28.2319 14.3692 28.4544 14.4614 28.6185 14.6255C28.7826 14.7896 28.8748 15.0122 28.8748 15.2442V16.0116C29.4884 16.1121 30.0464 16.4272 30.4494 16.9007C30.8524 17.3742 31.0743 17.9754 31.0754 18.5972C31.0749 18.7121 31.0517 18.8258 31.0071 18.9317C30.9626 19.0377 30.8977 19.1338 30.8161 19.2147C30.7344 19.2955 30.6376 19.3595 30.5312 19.4029C30.4249 19.4464 30.311 19.4684 30.196 19.4679Z" fill="#D7D7D7"/>
</svg>
