<svg width="110" height="110" viewBox="0 0 110 110" fill="none" xmlns="http://www.w3.org/2000/svg">
<path d="M60.0695 31.9344C66.9617 31.9344 72.7367 37.6922 72.7367 44.6016C72.7367 51.4938 66.9617 57.2688 60.0695 57.2688C53.1773 57.2688 47.4023 51.4938 47.4023 44.6016C47.4023 37.6922 53.1773 31.9344 60.0695 31.9344ZM64.8133 47.7641V47.2828C64.8133 45.3234 63.232 43.7422 61.2898 43.7422H58.8492C57.8523 43.7422 57.0445 42.9344 57.0445 41.9186V41.4391C57.0445 40.4422 57.8523 39.6155 58.8492 39.6155H61.2898C62.2867 39.6155 63.0945 40.4405 63.0945 41.4391C63.0945 42.5391 64.8133 42.5391 64.8133 41.4391C64.8133 39.478 63.232 37.8967 61.2898 37.8967H60.9289V37.0889C60.9289 35.9889 59.2102 35.9889 59.2102 37.0889V37.8967H58.8492C56.907 37.8967 55.3258 39.478 55.3258 41.4391V41.9186C55.3258 43.8797 56.907 45.4609 58.8492 45.4609H61.2898C62.2867 45.4609 63.0945 46.2688 63.0945 47.2828V47.7641C63.0945 48.7609 62.2867 49.5859 61.2898 49.5859H58.8492C57.8523 49.5859 57.0445 48.7627 57.0445 47.7641C57.0445 46.6469 55.3258 46.6469 55.3258 47.7641C55.3258 49.7234 56.907 51.3047 58.8492 51.3047H59.2102V52.1142C59.2102 53.2142 60.9289 53.2142 60.9289 52.1142V51.3047H61.2898C63.232 51.3047 64.8133 49.7234 64.8133 47.7641Z" fill="#0D1B73"/>
<path d="M93.8602 38.7406C95.7852 49.8953 93.5681 61.3766 87.6212 70.9844C84.2868 76.383 82.5337 82.5687 82.5337 88.8938V99.6875H45.529V92.9328C45.529 89.375 42.4181 86.4875 38.8774 86.7436L29.7681 87.4483C25.7977 87.7405 22.4977 84.0967 23.2024 80.1797L23.6149 77.8577C23.7868 76.9123 23.4946 75.9516 22.8587 75.228L21.7587 74.0266C21.3118 73.5453 21.2946 72.8234 21.7071 72.3078L22.6352 71.1734C22.8931 70.8641 22.8587 70.4 22.5665 70.1078L21.1743 68.8703C20.6071 68.353 20.6071 67.4437 21.1571 66.9281C21.8446 66.2922 22.3259 65.4655 22.5321 64.5734L22.5493 64.4686C22.8931 63.0248 21.7759 61.6155 20.2977 61.6155H18.5618C16.0696 61.6155 14.5915 58.6764 16.0696 56.6844L21.879 48.8125C24.1306 45.7686 25.6602 42.2469 26.3306 38.5C26.4509 37.8641 26.5712 37.2281 26.7259 36.5922C30.5415 20.7281 45.5462 9.52188 61.8571 10.3469C77.6524 11.1547 91.1618 23.1688 93.8602 38.7406ZM84.0462 44.6016C84.0462 43.0014 84.3384 39.2717 81.9321 39.2717H78.8727C78.4431 37.8108 77.8759 36.4014 77.1368 35.0797L79.2852 32.9141C80.9524 31.2641 78.3227 28.9781 77.2227 27.8609C76.0884 26.6922 73.5102 23.6328 71.7571 25.3859L69.5915 27.5533C68.2681 26.797 66.8587 26.2127 65.3977 25.7984V22.7391C65.3977 20.3328 61.6681 20.625 60.0696 20.625C58.4712 20.625 54.7415 20.3328 54.7415 22.7391V25.7967C53.2806 26.2092 51.8712 26.7936 50.5477 27.5516L48.3821 25.3842C46.7321 23.717 44.4462 26.3484 43.329 27.4467C42.1602 28.5811 39.0837 31.1592 40.854 32.9141L43.0196 35.0797C42.2634 36.4031 41.6962 37.8125 41.2665 39.2717H38.2071C35.8009 39.2717 36.0931 43.0014 36.0931 44.6016C36.0931 46.2 35.8009 49.9297 38.2071 49.9297H41.2665C41.6962 51.3923 42.2634 52.8 43.0196 54.1234L40.854 56.2891C39.1868 57.9391 41.8165 60.225 42.9165 61.3422C44.0509 62.5109 46.629 65.5703 48.3821 63.8155L50.5477 61.6498C51.8712 62.3889 53.2806 62.9733 54.7415 63.3858V66.4623C54.7415 68.8686 58.4712 68.5764 60.0696 68.5764C61.6681 68.5764 65.3977 68.8686 65.3977 66.4623V63.3858C66.8587 62.9733 68.2681 62.3889 69.5915 61.6498L71.7571 63.8155C73.4071 65.4827 75.6931 62.853 76.8102 61.753C77.979 60.6186 81.0556 58.0405 79.2852 56.2873L77.1368 54.1217C77.8759 52.7966 78.4431 51.3889 78.8727 49.928H81.9321C84.3384 49.9297 84.0462 46.2 84.0462 44.6016Z" fill="#0D1B73"/>
</svg>
