<svg width="87" height="87" viewBox="0 0 87 87" fill="none" xmlns="http://www.w3.org/2000/svg">
<path d="M52.3916 62.3799L57.8658 56.2245L54.1522 55.297C52.7305 56.7054 50.2744 58.6255 46.7969 59.4298L50.5052 62.5206C51.0727 62.9919 51.8997 62.9308 52.3916 62.3799Z" fill="#0D1B73"/>
<path d="M35.6238 65.5606C34.5014 65.5606 33.3863 65.0947 32.5785 64.1853L26.158 56.968L22.6065 57.855C17.2233 59.2008 13.2268 63.6323 12.4384 69.1242L10.8887 80.0128C10.8342 80.407 10.943 80.8013 11.2013 81.1003C11.4596 81.3858 11.8403 81.5625 12.2344 81.5625H24.4688V75.3285L22.1483 73.008C21.6173 72.477 21.6173 71.6168 22.1483 71.0858C22.6793 70.5548 23.5396 70.5548 24.0706 71.0858L26.7893 73.8045C27.0442 74.0594 27.1876 74.4046 27.1876 74.7656V81.5625H37.8821L39.3889 69.5079L37.6026 65.0419C36.9837 65.3872 36.3026 65.5606 35.6238 65.5606Z" fill="#0D1B73"/>
<path d="M29.1367 56.2244L34.6108 62.3786C35.102 62.9322 35.931 62.9919 36.4979 62.5206L40.2342 59.4061C38.0663 58.9043 35.2439 57.7739 32.821 55.3043L29.1367 56.2244Z" fill="#0D1B73"/>
<path d="M51.6562 53.9128V50.1745C49.0734 51.0988 46.3139 51.5883 43.5 51.5883C40.6861 51.5883 37.9266 51.0988 35.3438 50.1745V53.9536C38.783 56.985 42.9698 57.0937 43.5 57.0937C47.2655 57.0937 50.0386 55.3266 51.6562 53.9128Z" fill="#0D1B73"/>
<path d="M41.9805 70.6875L40.6211 81.5625H46.3775L45.0182 70.6875H41.9805Z" fill="#0D1B73"/>
<path d="M39.8281 63.2837L41.7022 67.9688H45.2984L47.1725 63.2834L43.5004 60.2231L39.8281 63.2837Z" fill="#0D1B73"/>
<path d="M74.5599 69.1242C73.7715 63.6323 69.775 59.2008 64.3918 57.855L60.8405 56.968L54.4198 64.1867C53.612 65.0947 52.4969 65.5606 51.3745 65.5606C50.695 65.5606 50.0142 65.388 49.3955 65.0422L47.6094 69.5079L49.1162 81.5625H59.8107V74.7656C59.8107 74.4045 59.9541 74.0594 60.209 73.8045L62.9277 71.0858C63.4587 70.5548 64.319 70.5548 64.85 71.0858C65.381 71.6168 65.381 72.477 64.85 73.008L62.5295 75.3285V81.5625H74.7639C75.158 81.5625 75.5387 81.3858 75.797 81.1003C76.0553 80.8012 76.1641 80.407 76.1096 80.0128L74.5599 69.1242Z" fill="#0D1B73"/>
<path d="M48.7064 15.5649C48.7064 17.9709 47.0751 19.9964 44.8594 20.5946V26.3311L50.8542 29.7975C51.5066 30.1645 51.7242 30.9937 51.3435 31.6462C50.6638 32.8425 51.0716 34.365 52.2544 35.0583C53.4505 35.7379 54.9731 35.3301 55.6663 34.1475C56.047 33.495 56.8762 33.2639 57.5287 33.6445L62.9527 36.7847C64.4071 33.862 65.25 30.5995 65.25 27.1195C65.25 15.592 56.2237 6.1444 44.8594 5.4375V10.5352C47.0751 11.1333 48.7064 13.1587 48.7064 15.5649Z" fill="#0D1B73"/>
<path d="M61.6082 39.15L57.1902 36.5944C55.559 38.212 52.9898 38.6063 50.8964 37.41C48.8165 36.2138 47.8786 33.7805 48.4767 31.5647L43.5014 28.6828L37.5065 32.1493C36.854 32.5162 36.0248 32.2988 35.6578 31.6462C34.9645 30.4636 33.442 30.0558 32.2457 30.7355C31.0631 31.4287 30.6553 32.9512 31.335 34.1475C31.5117 34.4601 31.5661 34.8272 31.4709 35.1806C31.3757 35.5205 31.1447 35.8195 30.8456 35.9962L25.3945 39.15C29.2959 44.9953 35.9568 48.8696 43.5014 48.8696C51.046 48.8696 57.7068 44.9953 61.6082 39.15Z" fill="#0D1B73"/>
<path d="M28.4517 34.2291C27.8672 32.0133 28.8052 29.58 30.885 28.3838C32.9648 27.1875 35.5476 27.5817 37.1653 29.1993L42.1406 26.3311V19.4118C42.1406 18.6642 42.7523 18.0524 43.5 18.0524C44.8729 18.0524 45.9876 16.9378 45.9876 15.5648C45.9876 14.1919 44.8729 13.0772 43.5 13.0772C42.7523 13.0772 42.1406 12.4654 42.1406 11.7178V5.43747C30.7762 6.14438 21.75 15.592 21.75 27.1195C21.75 30.5995 22.5928 33.862 24.0473 36.7847L28.4517 34.2291Z" fill="#0D1B73"/>
</svg>
