<svg width="98" height="98" viewBox="0 0 98 98" fill="none" xmlns="http://www.w3.org/2000/svg">
<g clip-path="url(#clip0_630_89)">
<path fill-rule="evenodd" clip-rule="evenodd" d="M37.8389 46.1492H47.2285V37.2745H36.625C36.7294 40.2661 37.1362 43.2395 37.8389 46.1492Z" fill="#0D1B73"/>
<path fill-rule="evenodd" clip-rule="evenodd" d="M36.625 33.7245H47.2285V24.8498H37.8389C37.1362 27.7595 36.7294 30.7329 36.625 33.7245Z" fill="#0D1B73"/>
<path fill-rule="evenodd" clip-rule="evenodd" d="M47.2289 60.0525V49.6992H38.8867C40.8391 55.1501 43.8317 59.0284 47.2289 60.0525Z" fill="#0D1B73"/>
<path fill-rule="evenodd" clip-rule="evenodd" d="M38.8867 21.2998H47.2289V10.9466C43.8317 11.9706 40.8391 15.8489 38.8867 21.2998Z" fill="#0D1B73"/>
<path fill-rule="evenodd" clip-rule="evenodd" d="M34.1645 24.8498H26.5872C25.2572 27.6351 24.4629 30.6457 24.2461 33.7245H33.0801C33.1678 30.7393 33.5308 27.7684 34.1645 24.8498Z" fill="#0D1B73"/>
<path fill-rule="evenodd" clip-rule="evenodd" d="M28.6406 49.6992C31.3605 53.5937 35.1343 56.6322 39.5194 58.4586C37.5581 55.8147 36.0694 52.8512 35.1193 49.6992H28.6406Z" fill="#0D1B73"/>
<path fill-rule="evenodd" clip-rule="evenodd" d="M50.7773 10.9466V21.2998H59.1196C57.1671 15.8489 54.1745 11.9706 50.7773 10.9466Z" fill="#0D1B73"/>
<path fill-rule="evenodd" clip-rule="evenodd" d="M39.5194 12.5404C35.1343 14.3668 31.3607 17.4053 28.6406 21.2998H35.1191C36.0692 18.148 37.5581 15.1843 39.5194 12.5404Z" fill="#0D1B73"/>
<path fill-rule="evenodd" clip-rule="evenodd" d="M33.0801 37.2745H24.2461C24.4631 40.3535 25.2572 43.3639 26.5872 46.1492H34.1645C33.531 43.2306 33.168 40.2597 33.0801 37.2745Z" fill="#0D1B73"/>
<path fill-rule="evenodd" clip-rule="evenodd" d="M69.7716 65.5531C69.3859 65.6455 69.0459 65.8726 68.8132 66.1939L66.1685 69.8307C65.017 71.415 63.0749 72.2205 61.14 71.9163L56.7026 71.2063C56.3122 71.1444 55.9127 71.2238 55.5754 71.43L51.7203 73.7854C50.5491 74.5239 49.1233 74.7412 47.7852 74.3853L53.9515 96.6735C54.1115 97.258 54.5584 97.7206 55.1371 97.9002C55.7158 98.08 56.3462 97.952 56.8092 97.5609L64.9066 90.7007C65.6558 90.0453 66.6451 89.7333 67.6348 89.8399L78.107 90.9049C78.7098 90.9665 79.3023 90.7164 79.6786 90.2417C80.0548 89.7669 80.1629 89.133 79.9655 88.5603L71.8522 65.0511L69.7716 65.5531Z" fill="#0D1B73"/>
<path fill-rule="evenodd" clip-rule="evenodd" d="M58.4883 12.5404C60.4496 15.1843 61.9383 18.1478 62.8884 21.2998H69.3669C66.6472 17.4055 62.8734 14.3668 58.4883 12.5404Z" fill="#0D1B73"/>
<path fill-rule="evenodd" clip-rule="evenodd" d="M42.4368 71.4389C42.0985 71.2343 41.6989 71.1551 41.3079 71.2153L36.8706 71.9145C34.9352 72.2195 32.9921 71.4139 31.8403 69.8289L29.1939 66.1903C28.9611 65.8703 28.6219 65.6438 28.2372 65.5514L26.157 65.0472L17.978 88.4767C17.7789 89.0474 17.8839 89.6801 18.2566 90.1559C18.6294 90.6318 19.2186 90.8851 19.8204 90.8284L30.3886 89.8362C31.3775 89.7384 32.3629 90.0523 33.1131 90.7042L41.1181 97.5715C41.5778 97.9664 42.2072 98.0994 42.7872 97.9245C43.3673 97.7494 43.8181 97.2904 43.9827 96.7073L47.1776 85.4594L43.4574 72.0638L42.4368 71.4389Z" fill="#0D1B73"/>
<path d="M84.2602 36.3675C84.587 35.835 84.587 35.164 84.2602 34.6315L81.9137 30.7834C81.2696 29.7267 81.0217 28.4755 81.2144 27.253L81.912 22.8156C82.0123 22.1973 81.7555 21.5751 81.2482 21.2076L77.6095 18.5611C76.6072 17.8326 75.8969 16.7712 75.6056 15.5668L74.5495 11.1826C74.403 10.5759 73.9285 10.1026 73.3213 9.95782L68.9425 8.89279C67.7398 8.60081 66.6799 7.89144 65.9517 6.89066L63.3052 3.25197C62.935 2.74664 62.3143 2.48941 61.6952 2.58454L57.2579 3.29449C56.036 3.48533 54.7859 3.23761 53.7293 2.59521L49.8722 0.243451C49.3391 -0.0813385 48.6693 -0.0813385 48.1362 0.243451L44.288 2.58997C43.2337 3.23858 41.9827 3.49018 40.7594 3.29993L36.3221 2.5989C35.7032 2.49815 35.0806 2.75576 34.714 3.26459L32.0604 6.8961C31.3322 7.89629 30.2722 8.60527 29.0695 8.89648L24.6908 9.96151C24.0824 10.1071 23.6071 10.5816 23.4607 11.1898L22.3957 15.5685C22.1037 16.7712 21.3944 17.8312 20.3936 18.5594L16.7532 21.2059C16.2461 21.5737 15.9894 22.1956 16.0894 22.8139L16.7887 27.2619C16.9795 28.4834 16.7312 29.7331 16.0877 30.7888L13.7411 34.637C13.4144 35.1695 13.4144 35.8404 13.7411 36.3729L16.0877 40.2211C16.7318 41.2778 16.9797 42.529 16.7869 43.7514L16.0894 48.1888C15.989 48.8071 16.2459 49.4293 16.7532 49.7968L20.3918 52.4433C21.3942 53.1719 22.1045 54.2332 22.3957 55.4377L23.4607 59.8129C23.6064 60.4215 24.082 60.8964 24.6908 61.0412L29.0695 62.1062C30.2722 62.398 31.3322 63.1076 32.0604 64.1083L34.7068 67.747C35.0755 68.2543 35.6973 68.5121 36.3168 68.4145L40.7542 67.7134C41.0227 67.6725 41.2937 67.6517 41.5653 67.6513C42.5237 67.6511 43.4639 67.9146 44.2828 68.4127L48.131 70.761C48.6641 71.0858 49.3338 71.0858 49.8669 70.761L53.7151 68.4145C54.7718 67.7719 56.0216 67.5234 57.2437 67.7134L61.6811 68.4145C62.2996 68.5131 62.9212 68.2559 63.2891 67.7488L65.9355 64.1083C66.6637 63.1082 67.7237 62.3992 68.9264 62.108L73.3051 61.0429C73.9136 60.8973 74.3888 60.4229 74.5352 59.8146L75.6002 55.4359C75.8922 54.2332 76.6016 53.1732 77.6023 52.445L81.2428 49.7986C81.7499 49.4307 82.0065 48.8089 81.9065 48.1906L81.2072 43.7425C81.0164 42.521 81.2647 41.2714 81.9083 40.2156L84.2602 36.3675ZM49.0042 63.8989C33.3197 63.8989 20.6048 51.1841 20.6048 35.4995C20.6048 19.8149 33.3197 7.10014 49.0042 7.10014C64.6886 7.10014 77.4035 19.8149 77.4035 35.4995C77.3849 51.1764 64.681 63.8802 49.0042 63.8989Z" fill="#0D1B73"/>
<path fill-rule="evenodd" clip-rule="evenodd" d="M64.9282 33.7245H73.7622C73.5451 30.6455 72.7511 27.6351 71.4211 24.8498H63.8438C64.4772 27.7684 64.8402 30.7393 64.9282 33.7245Z" fill="#0D1B73"/>
<path fill-rule="evenodd" clip-rule="evenodd" d="M50.7773 49.6992V60.0525C54.1745 59.0284 57.1671 55.1499 59.1196 49.6992H50.7773Z" fill="#0D1B73"/>
<path fill-rule="evenodd" clip-rule="evenodd" d="M61.3808 37.2745H50.7773V46.1492H60.1669C60.8697 43.2395 61.2764 40.2661 61.3808 37.2745Z" fill="#0D1B73"/>
<path fill-rule="evenodd" clip-rule="evenodd" d="M63.8438 46.1492H71.4211C72.7511 43.364 73.5453 40.3533 73.7622 37.2745H64.9282C64.8404 40.2597 64.4774 43.2306 63.8438 46.1492Z" fill="#0D1B73"/>
<path fill-rule="evenodd" clip-rule="evenodd" d="M60.1669 24.8498H50.7773V33.7245H61.3808C61.2764 30.7329 60.8697 27.7595 60.1669 24.8498Z" fill="#0D1B73"/>
<path fill-rule="evenodd" clip-rule="evenodd" d="M58.4883 58.4586C62.8734 56.6322 66.647 53.5937 69.3671 49.6992H62.8886C61.9385 52.851 60.4496 55.8147 58.4883 58.4586Z" fill="#0D1B73"/>
</g>
<defs>
<clipPath id="clip0_630_89">
<rect width="98" height="98" fill="white"/>
</clipPath>
</defs>
</svg>
