<svg width="93" height="93" viewBox="0 0 93 93" fill="none" xmlns="http://www.w3.org/2000/svg">
<path d="M74.7791 82.0333L66.2872 69.6485C64.9598 68.0451 62.9866 67.1173 60.9052 67.1173H49.8495C47.8899 67.1173 46.0784 68.1608 45.0954 69.8559L40.0522 78.5518H62.2719C63.0413 78.5518 63.7125 79.1446 63.7355 79.9139C63.7595 80.7098 63.1214 81.3625 62.3307 81.3625L44.2081 81.4217C41.842 81.431 39.7005 83.1881 39.7005 85.6158C39.7005 86.2114 39.7752 86.7596 39.9137 87.2573H38.0281L30.7852 64.5722C30.4764 63.6049 29.5777 62.9485 28.5623 62.9485H4.78045C3.20018 62.9485 2.07691 64.4862 2.55754 65.9915L9.90526 89.005C10.2141 89.9722 11.1128 90.6287 12.1282 90.6287H26.9413H39.1045H44.4644H49.4228H70.3507C73.4501 90.6287 75.9438 88.0358 75.781 84.9008C75.7276 83.8718 75.3618 82.8832 74.7791 82.0333Z" fill="#0D1B73"/>
<path d="M55.174 65.248C60.409 65.248 64.6528 61.0043 64.6528 55.7693C64.6528 50.5343 60.409 46.2906 55.174 46.2906C49.9391 46.2906 45.6953 50.5343 45.6953 55.7693C45.6953 61.0043 49.9391 65.248 55.174 65.248Z" fill="#0D1B73"/>
<path d="M37.7678 31.0531C43.0028 31.0531 47.2465 26.8093 47.2465 21.5744C47.2465 16.3394 43.0028 12.0956 37.7678 12.0956C32.5328 12.0956 28.2891 16.3394 28.2891 21.5744C28.2891 26.8093 32.5328 31.0531 37.7678 31.0531Z" fill="#0D1B73"/>
<path d="M32.0309 42.3511L31.7367 61.3426C32.4889 61.9489 33.0712 62.771 33.3818 63.7433L37.6814 77.2104C37.6863 77.2018 37.6912 77.1933 37.6961 77.1847L42.7394 68.4889C43.7228 66.7933 45.2744 65.5319 47.0706 64.8833C44.5574 62.6464 42.9704 59.3903 42.9704 55.7691C42.9704 50.0892 46.8712 45.3032 52.1344 43.949L51.5128 38.8905L57.235 41.0297C58.3766 41.4566 58.9839 42.703 58.6162 43.8649L58.5587 44.0469C61.0057 44.7548 63.138 46.2081 64.6928 48.1459L66.3914 43.0792C67.2373 40.5558 66.3103 37.7771 64.119 36.2669L53.9759 29.2763C52.3674 28.1677 50.5576 27.4176 48.6667 27.0516C46.6559 31.0364 42.5267 33.7775 37.7668 33.7775C34.6141 33.7775 31.7367 32.5756 29.5688 30.6061C28.3246 31.6231 27.2474 32.8572 26.4004 34.2725L11.1953 60.2237H20.9814L32.0309 42.3511Z" fill="#0D1B73"/>
<path d="M74.4517 2.23291C65.5389 2.23291 58.3136 8.19 58.3136 15.5383C58.3136 16.491 58.4361 17.4201 58.6669 18.3161L55.9816 20.9105C55.3678 21.5033 55.7627 22.5429 56.6153 22.5788L60.8953 22.759C63.7703 26.4205 68.7674 28.8438 74.4517 28.8438C83.3644 28.8438 90.5897 22.8867 90.5897 15.5385C90.5897 8.19 83.3644 2.23291 74.4517 2.23291ZM68.2868 17.1965C67.371 17.1965 66.6286 16.4541 66.6286 15.5383C66.6286 14.6224 67.371 13.8801 68.2868 13.8801C69.2026 13.8801 69.945 14.6224 69.945 15.5383C69.945 16.4541 69.2026 17.1965 68.2868 17.1965ZM74.4517 17.1965C73.5358 17.1965 72.7935 16.4541 72.7935 15.5383C72.7935 14.6224 73.5358 13.8801 74.4517 13.8801C75.3675 13.8801 76.1099 14.6224 76.1099 15.5383C76.1099 16.4541 75.3675 17.1965 74.4517 17.1965ZM80.6164 17.1965C79.7005 17.1965 78.9582 16.4541 78.9582 15.5383C78.9582 14.6224 79.7005 13.8801 80.6164 13.8801C81.5322 13.8801 82.2746 14.6224 82.2746 15.5383C82.2746 16.4541 81.5322 17.1965 80.6164 17.1965Z" fill="#0D1B73"/>
</svg>
