<svg width="101" height="101" viewBox="0 0 101 101" fill="none" xmlns="http://www.w3.org/2000/svg">
<path d="M88.1933 42.8179C87.0455 38.0433 85.0255 33.6055 82.271 29.6879L88.6217 21.5314L79.4705 12.3802L70.9621 18.9911C67.1363 16.6038 62.882 14.8439 58.3217 13.9105L56.9751 3.0606H44.044L42.682 13.9105C38.1217 14.8439 33.8675 16.6191 30.0417 18.9911L21.5333 12.3802L12.382 21.5314L18.7328 29.6879C15.9936 33.5902 13.9736 38.028 12.8105 42.8179L3.0625 44.0421V56.9732L12.229 58.1209C13.0707 63.3852 14.9683 68.2974 17.7075 72.6435L12.382 79.4839L21.5333 88.6352L28.037 83.5699C29.9958 84.9624 32.1077 86.1714 34.3113 87.1967C35.3825 86.2785 36.7445 85.7123 38.2595 85.7123H42.1158L42.7127 83.7688C37.6933 81.2285 33.5002 76.3162 30.8069 69.9961C29.2307 72.0926 26.7363 73.4699 23.9205 73.4699C21.3955 73.4699 19.3296 71.4039 19.3296 68.8789C19.3296 67.3333 20.0948 65.9561 21.2884 65.1297C16.3302 63.9361 12.6422 59.4676 12.6422 54.1574C12.6422 47.9291 17.7075 42.8638 23.9358 42.8638C25.206 42.8638 26.4302 43.078 27.5627 43.4759V43.4606V42.8485H27.7769C31.3884 33.835 40.1877 27.4536 50.5019 27.4536C60.8161 27.4536 69.6154 33.835 73.2269 42.8485H73.4717V43.4453C74.6042 43.0627 75.8131 42.8485 77.0833 42.8485C83.3116 42.8485 88.3769 47.9138 88.3769 54.1421C88.3769 59.4523 84.6889 63.9208 79.7307 65.1144C80.909 65.9408 81.6895 67.318 81.6895 68.8636C81.6895 71.3886 79.6236 73.4546 77.0986 73.4546C74.2828 73.4546 71.7884 72.0926 70.2275 69.9961C67.5342 76.3009 63.3411 81.2132 58.3217 83.7535L58.9033 85.697H62.7596C64.2746 85.697 65.6366 86.2632 66.7078 87.1814C68.9114 86.1561 71.008 84.9624 72.9667 83.5546L79.4705 88.6199L88.6217 79.4686L83.2963 72.6282C86.0355 68.2974 87.9331 63.3852 88.7748 58.1056L97.9413 56.9732V44.0421L88.1933 42.8179Z" fill="#0D1B73"/>
<path d="M23.9205 67.3333C23.0789 67.3333 22.3902 68.022 22.3902 68.8636C22.3902 69.7053 23.0789 70.3939 23.9205 70.3939C26.5833 70.3939 28.8175 68.5117 29.3378 66.002C28.894 64.5482 28.5573 63.0332 28.2819 61.4723C27.2719 60.1715 25.6957 59.2992 23.9205 59.2992C21.0742 59.2992 18.7481 56.9885 18.7481 54.1268C18.7481 51.2651 21.0742 48.9697 23.9205 48.9697C25.3437 48.9697 26.6139 49.5512 27.5627 50.4694V46.7967C26.4608 46.2458 25.2366 45.9091 23.9205 45.9091C19.3908 45.9091 15.6875 49.5971 15.6875 54.1421C15.6875 58.6871 19.3755 62.3751 23.9205 62.3751C25.2978 62.3751 26.4149 63.4923 26.4149 64.8695C26.4149 66.2468 25.2978 67.3333 23.9205 67.3333Z" fill="#0D1B73"/>
<path d="M77.0817 59.2992C75.3218 59.2992 73.7609 60.1409 72.7509 61.4264C72.4601 63.0026 72.1235 64.5635 71.6797 66.0326C72.2306 68.5117 74.4342 70.3939 77.097 70.3939C77.9386 70.3939 78.6273 69.7053 78.6273 68.8636C78.6273 68.022 77.9386 67.3333 77.097 67.3333C75.7197 67.3333 74.6026 66.2162 74.6026 64.8389C74.6026 63.4617 75.7197 62.3445 77.097 62.3445C81.6267 62.3445 85.33 58.6565 85.33 54.1115C85.33 49.5665 81.6114 45.9091 77.0817 45.9091C75.7809 45.9091 74.572 46.2458 73.4701 46.7814V50.4541C74.4036 49.5359 75.6738 48.9697 77.0817 48.9697C79.928 48.9697 82.2541 51.2805 82.2541 54.1421C82.2541 57.0038 79.928 59.2992 77.0817 59.2992Z" fill="#0D1B73"/>
<path d="M62.7603 88.7576H56.6391L55.4608 84.9318C53.8692 85.4215 52.2165 85.697 50.5179 85.697C48.8192 85.697 47.1665 85.4215 45.575 84.9318L44.3967 88.7576H38.2754C36.5921 88.7576 35.2148 90.1349 35.2148 91.8182V97.9394H65.8209V91.8182C65.8209 90.1349 64.4589 88.7576 62.7603 88.7576Z" fill="#0D1B73"/>
<path d="M70.4129 53.5606V45.9091H30.625V53.5606C30.625 69.6135 39.5314 82.6364 50.5189 82.6364C61.5065 82.6364 70.4129 69.6288 70.4129 53.5606ZM40.878 59.0544L47.5348 58.0903L50.5189 52.0456L53.503 58.0903L60.1598 59.0544L55.3394 63.7524L56.4718 70.3939L50.5036 67.2568L44.5508 70.3939L45.6832 63.7524L40.878 59.0544Z" fill="#0D1B73"/>
</svg>
