<svg width="105" height="105" viewBox="0 0 105 105" fill="none" xmlns="http://www.w3.org/2000/svg">
<path d="M88.7817 35.0227C87.9067 35.0227 87.1908 34.3068 87.1908 33.4318V23.5682C87.1908 23.1386 86.8408 22.7886 86.4112 22.7886H46.1612C45.2862 22.7886 44.5703 22.0727 44.5703 21.1977C44.5703 20.3227 45.2862 19.6068 46.1612 19.6068H86.4112C88.5908 19.6068 90.3726 21.3886 90.3726 23.5682V33.4477C90.3726 34.3068 89.6567 35.0227 88.7817 35.0227Z" fill="#0D1B73"/>
<path d="M88.7853 35.0227C87.5762 35.0227 86.5898 36.0091 86.5898 37.2182C86.5898 37.8864 86.8762 38.4909 87.4171 38.9205C88.1967 39.5568 89.3739 39.5568 90.1376 38.9364C90.6944 38.5068 90.9967 37.8864 90.9967 37.2182C90.9807 36.0091 89.9944 35.0227 88.7853 35.0227Z" fill="#0D1B73"/>
<path d="M94.638 55.0364C94.7017 55.4977 94.5585 55.9591 94.2562 56.2932C93.9539 56.6432 93.5244 56.8341 93.063 56.8341H84.5039C84.0426 56.8341 83.613 56.6432 83.3107 56.2932C83.0085 55.9591 82.8653 55.4977 82.9289 55.0364L84.7426 40.75C83.8835 39.7955 83.4062 38.5386 83.4062 37.2182C83.4062 34.2591 85.8244 31.8409 88.7835 31.8409C91.7426 31.8409 94.1607 34.2591 94.1607 37.2182C94.1607 38.5386 93.6835 39.7955 92.8085 40.75L94.638 55.0364Z" fill="#0D1B73"/>
<path d="M31.7553 78.9727C31.7553 78.1932 31.5167 77.4454 31.0712 76.7773C31.0553 76.7614 31.0394 76.7295 31.0235 76.7136C29.2576 74.2477 29.2576 70.9386 31.0235 68.4886C31.0394 68.4727 31.0553 68.4409 31.0712 68.425C31.5167 67.7727 31.7553 67.025 31.7553 66.2614C31.7553 65.975 31.7712 65.7045 31.803 65.4341C25.2962 65.3068 20.0303 65.1159 16.8007 64.8614C16.7689 64.8614 16.7371 64.8614 16.7053 64.8614C16.2917 64.8614 15.8939 65.0841 15.6553 65.45C11.5189 71.6386 11.4394 76.4432 15.4167 80.5795C15.703 80.8818 16.0848 81.025 16.4667 81.0091C20.3644 80.6909 26.6485 80.5159 31.9144 80.4204C31.8985 80.3727 31.9144 80.325 31.8985 80.2614C31.8189 79.8318 31.7553 79.4023 31.7553 78.9727Z" fill="#0D1B73"/>
<path d="M52.2749 89.7591C51.8453 89.8386 51.4158 89.8864 50.9703 89.9023C50.9385 89.9023 50.8908 89.9182 50.8589 89.9182C50.5885 89.9182 50.3021 89.8864 50.0317 89.8545C49.968 89.8545 49.9044 89.8546 49.8408 89.8386C49.459 89.7909 49.0771 89.7114 48.7112 89.5841C47.9635 89.3455 47.0567 89.3455 46.3408 89.5841C45.9749 89.6955 45.609 89.775 45.2271 89.8386C45.1476 89.8546 45.068 89.8545 45.0044 89.8545C44.734 89.8864 44.4794 89.9182 44.209 89.9182C44.1771 89.9182 44.1294 89.9023 44.0976 89.9023C43.6521 89.9023 43.2067 89.8545 42.7771 89.7591C42.6499 89.7273 42.5385 89.6955 42.4271 89.6636C42.1726 89.6 41.9339 89.5523 41.6953 89.4568V104.316L45.0999 100.466C45.7044 99.7659 46.5794 99.3523 47.518 99.3523H47.5339C48.4726 99.3523 49.3635 99.75 49.968 100.466L53.293 104.348L53.3567 89.4886C53.134 89.5682 52.9112 89.6159 52.6885 89.6795C52.5453 89.6795 52.418 89.7273 52.2749 89.7591Z" fill="#0D1B73"/>
<path d="M46.1623 37.5205C45.9555 37.5205 45.7487 37.4727 45.5577 37.3932L20.2305 26.9409V45.7136C20.2305 47.3205 21.2327 48.7841 22.7123 49.3568C38.3987 55.4341 54.0055 55.45 69.135 49.3886C70.5987 48.8 71.5691 47.3523 71.5691 45.7614V27.1795L46.7668 37.4091C46.5759 37.4727 46.3691 37.5205 46.1623 37.5205Z" fill="#0D1B73"/>
<path d="M19.2464 23.1068L46.1646 34.2114L72.5578 23.3295H72.5896L77.7283 21.2136L46.1805 8.18409L14.6328 21.1977L19.2305 23.0909C19.2305 23.0909 19.2464 23.0909 19.2464 23.1068Z" fill="#0D1B73"/>
<path d="M48.2982 69.0773L47.455 67.375L46.755 69.0773C46.3095 70 45.4345 70.6364 44.4163 70.7796L42.5391 71.05L43.9391 72.2432C44.6709 72.9591 45.005 73.9773 44.83 74.9955L44.5118 76.8568L46.0868 75.9023C46.9936 75.425 48.0754 75.425 48.9822 75.9023L50.6527 76.7773L50.2232 74.9955C50.0482 73.9932 50.3822 72.9591 51.1141 72.2432L52.4663 70.9227L50.6368 70.7796C49.6186 70.6364 48.7436 70 48.2982 69.0773Z" fill="#0D1B73"/>
<path d="M78.5247 64.8614C75.2634 65.1159 69.8861 65.3068 63.252 65.4341C63.2838 65.6886 63.2997 65.9591 63.3156 66.2136C63.3156 67.0409 63.5543 67.7886 63.9997 68.425C64.0156 68.4409 64.0315 68.4727 64.0474 68.4886C65.8134 70.9386 65.8134 74.2477 64.0474 76.7136C64.0315 76.7455 64.0156 76.7614 63.9838 76.7932C63.5384 77.4295 63.2997 78.1773 63.2997 78.9568C63.2997 79.4023 63.2361 79.8318 63.1565 80.2455C63.1406 80.2932 63.1565 80.3409 63.1406 80.4045C70.3156 80.5477 75.7088 80.7545 78.8429 81.0091C79.2247 81.0409 79.6224 80.8818 79.8929 80.5955C83.8543 76.4591 83.7747 71.6545 79.6702 65.4659C79.4156 65.0523 78.9702 64.8136 78.5247 64.8614Z" fill="#0D1B73"/>
<path d="M60.1192 78.9409C60.1192 77.4773 60.5806 76.0614 61.4397 74.8682C61.4556 74.8523 61.4715 74.8205 61.4874 74.8045C62.4101 73.4682 62.4101 71.7182 61.4874 70.4136C61.4715 70.3977 61.4556 70.3659 61.4397 70.35C60.5806 69.1568 60.1192 67.7409 60.1192 66.2614C60.1033 65.6727 59.976 65.0841 59.7215 64.5909C59.6101 64.3364 59.5147 64.1773 59.3874 64.0182C58.8942 63.3341 58.242 62.8568 57.4624 62.6023C56.0942 62.1568 54.8851 61.2818 53.9783 60.0886C52.976 58.7205 51.1942 58.1955 49.667 58.6727C48.3306 59.1023 46.7079 59.1023 45.3556 58.6727C43.9079 58.2114 42.0306 58.7523 41.076 60.0727C40.201 61.25 39.0079 62.125 37.6079 62.6023C37.5601 62.6182 37.5283 62.6341 37.4806 62.6341C36.542 62.9682 35.7783 63.6523 35.3329 64.575C35.0624 65.0841 34.9351 65.6568 34.9351 66.2455C34.9351 67.7091 34.4738 69.125 33.6306 70.3341C33.6147 70.3659 33.5829 70.3977 33.567 70.4295C32.6442 71.75 32.6601 73.5 33.5829 74.8204C33.5988 74.8523 33.6306 74.8682 33.6465 74.9C34.5056 76.1091 34.951 77.525 34.951 78.9727C34.951 79.7364 35.1738 80.4682 35.6033 81.1045C36.0647 81.7886 36.7329 82.3136 37.5283 82.6C37.5601 82.6 37.592 82.6159 37.6238 82.6318C39.0397 83.0932 40.2488 83.9682 41.1079 85.1773C41.1397 85.225 41.1874 85.3045 41.251 85.3523C41.776 85.9568 42.4601 86.3704 43.176 86.5773C43.9079 86.7841 44.7033 86.8 45.3874 86.5773C46.0715 86.3545 46.7874 86.2432 47.551 86.2432C48.2988 86.2432 49.0306 86.3545 49.7147 86.5773C51.0829 87.0068 52.7851 86.5932 53.7874 85.4477C53.9147 85.3045 53.9624 85.2409 54.0101 85.1773C54.901 83.9841 56.1101 83.1091 57.4942 82.6636C58.3056 82.3932 59.0056 81.8523 59.4988 81.1205C59.8806 80.4364 60.1192 79.7045 60.1192 78.9409ZM54.6942 73.2136L53.342 74.5341L53.676 76.3318C53.8829 77.5091 53.4056 78.6705 52.4351 79.3705C51.8942 79.7682 51.2579 79.975 50.6056 79.975C50.1124 79.975 49.6192 79.8636 49.1579 79.6091L47.4874 78.7341L45.8806 79.6091C44.8147 80.1659 43.5738 80.0704 42.6033 79.3705C41.6329 78.6705 41.1715 77.5091 41.3624 76.3318L41.6806 74.4705L40.3442 73.2136C39.4851 72.3864 39.1829 71.1614 39.5647 70.0318C39.9306 68.9023 40.8851 68.0909 42.0783 67.9159L43.9556 67.6455L44.7351 65.9909C45.2601 64.925 46.326 64.2568 47.5192 64.2568C48.7124 64.2568 49.7783 64.925 50.3033 65.9909L51.1465 67.6932L52.9601 67.9318C54.1374 68.1068 55.1079 68.9182 55.4738 70.0477C55.8556 71.1614 55.5533 72.3705 54.6942 73.2136Z" fill="#0D1B73"/>
</svg>
