<svg width="108" height="108" viewBox="0 0 108 108" fill="none" xmlns="http://www.w3.org/2000/svg">
<path fill-rule="evenodd" clip-rule="evenodd" d="M74.6874 46.0804L47.4354 73.3324C46.1966 74.5787 44.1611 74.5787 42.9148 73.3324C41.6686 72.0862 41.6686 70.0507 42.9148 68.8045L70.1662 41.5571L67.8584 30.8293C67.7828 30.478 67.8906 30.1123 68.1447 29.858L85.7282 12.268C86.0024 11.9937 86.4043 11.8912 86.7762 12.0007C87.148 12.1102 87.4303 12.4143 87.5121 12.7933L89.5378 22.1883L93.9533 17.7734C95.1921 16.5272 97.2276 16.5272 98.4739 17.7734C99.7201 19.0199 99.7201 21.0551 98.4739 22.294L94.0586 26.7092L103.454 28.7352C103.833 28.8169 104.137 29.0992 104.247 29.4711C104.356 29.8429 104.254 30.2449 103.98 30.5191L86.3893 48.1026C86.135 48.3567 85.7692 48.4645 85.4179 48.3889L74.6874 46.0804ZM56.7327 68.8267C56.9263 69.7119 57.0283 70.6309 57.0283 71.5729C57.0283 78.6507 51.2914 84.3876 44.2136 84.3876C37.1358 84.3876 31.3989 78.6507 31.3989 71.5729C31.3989 64.5226 37.1176 58.7672 44.2136 58.7672C45.4183 58.7672 46.583 58.9328 47.6868 59.242L42.6489 64.2791C39.2708 64.9959 36.7468 67.9996 36.7468 71.5748C36.7468 75.6989 40.0897 79.0416 44.2136 79.0416C47.3168 79.0416 49.9778 77.1488 51.1048 74.4546L56.7327 68.8267ZM84.7202 51.7045V56.6572C84.7202 59.5271 83.2427 61.7165 81.1117 63.465C80.5376 63.9381 79.9159 64.3737 79.2621 64.7884C75.4762 67.1853 68.5051 68.8458 60.3166 69.7652C60.1749 68.4917 59.8855 67.2622 59.4655 66.0941L75.7786 49.7808L84.7053 51.7013C84.7102 51.7024 84.7153 51.7034 84.7202 51.7045ZM50.3505 56.5787C48.4599 55.8057 46.3884 55.379 44.2136 55.379C35.8536 55.379 29.0061 61.6976 28.1099 69.7712C19.9371 68.8551 12.9711 67.1957 9.16505 64.7884C8.51134 64.3737 7.89489 63.9381 7.3208 63.465C5.18451 61.7165 3.70703 59.5271 3.70703 56.6572V42.2072C3.70703 40.5332 5.07291 39.1676 6.74691 39.1676H21.368V44.8117C21.368 47.8366 23.8478 50.3164 26.8726 50.3164H56.6137L50.3505 56.5787ZM60.0026 46.9281H26.8726C25.7096 46.9281 24.7562 45.9748 24.7562 44.8117V39.1676H63.671V43.2601L60.0026 46.9281ZM60.0292 35.7793H54.412V32.822C54.412 32.4341 54.0772 32.094 53.6839 32.094H34.7433C34.3553 32.094 34.0152 32.4341 34.0152 32.822V35.7793H28.3979V32.822C28.3979 29.3358 31.257 26.4767 34.7433 26.4767H53.6839C57.1755 26.4767 60.0292 29.3358 60.0292 32.822V35.7793ZM60.3424 73.1319C69.3024 72.1199 76.9641 70.2534 81.0746 67.651L81.0768 67.6497C81.0884 67.6423 81.1001 67.6349 81.1117 67.6275V90.1169C81.1117 93.3747 78.4439 96.0425 75.1808 96.0425H13.2464C9.98882 96.0425 7.3208 93.3747 7.3208 90.1169V67.6309C7.33075 67.6372 7.34049 67.6434 7.35044 67.6497L7.35383 67.6518C11.4862 70.2654 19.1421 72.1298 28.0852 73.138C28.8725 81.3526 35.7926 87.7758 44.2136 87.7758C52.6368 87.7758 59.5581 81.3496 60.3424 73.1319Z" fill="#0D1B73"/>
</svg>
