<svg width="63" height="63" viewBox="0 0 63 63" fill="none" xmlns="http://www.w3.org/2000/svg">
<path d="M55.9013 37.6514C55.9013 33.673 52.6653 30.437 48.6883 30.437C44.7099 30.437 41.4739 33.673 41.4739 37.6514C41.4739 41.6285 44.7099 44.8644 48.6883 44.8644C52.6653 44.8644 55.9013 41.6285 55.9013 37.6514ZM47.7454 42.6035V42.0157H45.8396C45.3191 42.0157 44.8982 41.5948 44.8982 41.0743C44.8982 40.5538 45.3191 40.1329 45.8396 40.1329H49.8463C50.5362 40.1329 50.5887 39.5438 50.5887 39.3622C50.5887 39.1819 50.5363 38.5929 49.8463 38.5929H47.5289C45.8208 38.5929 44.8996 37.2251 44.8996 35.9393C44.8996 34.6521 45.8208 33.2857 47.5289 33.2857H47.7455V32.7019C47.7455 32.1814 48.1678 31.7605 48.6883 31.7605C49.2074 31.7605 49.6297 32.1814 49.6297 32.7019V33.2857H51.5315C52.052 33.2857 52.473 33.7066 52.473 34.2271C52.473 34.7476 52.052 35.1685 51.5315 35.1685H47.5289C46.8377 35.1685 46.7839 35.7589 46.7839 35.9392C46.7839 36.1194 46.8377 36.7085 47.5289 36.7085H49.8463C51.5517 36.7085 52.473 38.0762 52.473 39.3621C52.473 40.6493 51.5517 42.0157 49.8463 42.0157H49.6297V42.6035C49.6297 43.1226 49.2074 43.5449 48.6883 43.5449C48.1678 43.5449 47.7454 43.1226 47.7454 42.6035ZM62.9395 36.297V39.0044H60.6019C60.15 39.0044 59.7613 39.3258 59.6766 39.7696C59.3929 41.2612 58.8132 42.66 57.9537 43.9269C57.7009 44.3022 57.748 44.8038 58.068 45.1225L59.7197 46.7701L57.8072 48.6826L56.1555 47.031C55.8355 46.7109 55.3338 46.6638 54.9599 46.918C53.6983 47.7748 52.2996 48.3558 50.8012 48.6436C50.3574 48.7284 50.0373 49.1171 50.0373 49.5689V51.9011H47.8746C47.8558 49.8527 47.2101 47.9509 46.1221 46.3787C46.9359 46.6182 47.7979 46.7472 48.6883 46.7472C53.7037 46.7472 57.7843 42.6666 57.7843 37.6512C57.7843 32.6345 53.7037 28.5539 48.6883 28.5539C43.6715 28.5539 39.5909 32.6345 39.5909 37.6512C39.5909 39.4696 40.1275 41.1656 41.0516 42.5886C40.2164 42.3142 39.3328 42.1502 38.4182 42.1112C38.0927 41.3621 37.8492 40.5779 37.6945 39.7683C37.6098 39.3244 37.2212 39.0044 36.7692 39.0044H34.4371V36.297H36.7692C37.2212 36.297 37.6099 35.9769 37.6945 35.5343C37.9837 34.0321 38.5634 32.6346 39.4161 31.3784C39.6703 31.0045 39.6232 30.5042 39.3045 30.1841L37.6555 28.5311L39.5681 26.6186L41.2156 28.2703C41.5357 28.5903 42.0375 28.6374 42.4113 28.3846C43.677 27.5251 45.077 26.9442 46.5699 26.6576C47.0137 26.5728 47.3338 26.1841 47.3338 25.7323V23.4002H50.0371V25.7323C50.0371 26.1843 50.3572 26.573 50.8011 26.6576C52.2954 26.9441 53.6941 27.5251 54.9611 28.3846C55.335 28.6374 55.8353 28.5903 56.1554 28.2703L57.807 26.6186L59.7196 28.5311L58.0679 30.1828C57.7479 30.5028 57.7007 31.0046 57.9549 31.3784C58.8131 32.6414 59.3927 34.0388 59.6765 35.5316C59.7613 35.9755 60.15 36.2969 60.6018 36.2969H62.9395V36.297ZM17.2605 40.5497L21.6976 45.0662L19.395 47.3284C19.3937 47.3297 19.3937 47.3297 19.3923 47.3311C19.3909 47.3324 19.3909 47.3324 19.3896 47.3338L19.1462 47.5732L14.7118 43.0541L17.2605 40.5497ZM26.6591 47.3257L24.3606 45.0662L28.7949 40.5497L31.3477 43.054L26.9106 47.5731L26.6672 47.3337L26.6591 47.3257ZM23.0291 49.6861L21.3842 48.0142L23.0291 46.3989L24.6713 48.0129L23.0291 49.6861ZM24.4655 50.91L27.2362 61.6926H18.8194L21.5914 50.91L22.358 51.6888C22.5355 51.8691 22.7776 51.9712 23.0291 51.9712H23.0304C23.2819 51.9698 23.524 51.8689 23.7015 51.6888L24.4655 50.91ZM45.9929 51.9967V61.6925H29.1809L26.0068 49.3417L26.0027 49.3215L26.0148 49.3336L26.2623 49.5769C26.4385 49.7491 26.6752 49.8473 26.9226 49.8473H26.9308C27.1809 49.8446 27.419 49.7424 27.5939 49.5649L33.0746 43.9832H37.9823C42.3992 43.9835 45.9929 47.5785 45.9929 51.9967ZM20.0486 49.3432L16.8745 61.6926H0.0625V51.9967C0.0625 47.5785 3.65621 43.9834 8.0731 43.9834H12.9849L18.4616 49.565C18.6364 49.7426 18.8745 49.8447 19.1247 49.8474H19.1328C19.3802 49.8474 19.617 49.7506 19.7932 49.5771L20.0406 49.3337L20.0554 49.3203L20.0486 49.3432ZM8.54252 23.6019C8.54252 25.3261 9.66557 26.7975 11.2553 27.2831C11.7073 30.1814 12.7281 33.0449 14.5034 35.3206C16.6271 38.0428 19.5564 39.4806 22.9767 39.4806C29.3854 39.4806 33.7565 33.6354 34.893 27.2818C36.4787 26.7936 37.6004 25.3208 37.6004 23.602C37.6004 23.0008 37.4619 22.4318 37.2158 21.9262C37.8896 20.1886 38.2299 18.354 38.2299 16.4643C38.2299 8.1067 31.4297 1.30664 23.0721 1.30664C14.7132 1.30664 7.91314 8.10683 7.91314 16.4643C7.91314 18.3526 8.25336 20.1858 8.92593 21.9222C8.67972 22.4305 8.54252 23.0007 8.54252 23.6019ZM35.7174 23.6019C35.7174 24.1344 35.5063 24.6213 35.1606 24.9778C35.1647 24.9038 35.1688 24.8311 35.1713 24.7572V24.7465C35.1996 23.7485 35.1149 22.838 34.9144 22.0189C35.4013 22.3766 35.7174 22.9523 35.7174 23.6019ZM13.4072 18.7762C13.8161 17.442 14.3998 16.1777 15.1167 15.0628C17.2498 17.2175 19.8926 18.5072 22.9874 18.9014C23.0721 18.9121 23.1582 18.9107 23.2429 18.8987C27.3101 18.3015 30.1654 18.705 31.7337 20.0984C32.0699 20.3982 32.3523 20.7467 32.5783 21.1447C32.5944 21.1717 32.6105 21.1999 32.6254 21.2282C33.1109 22.124 33.3302 23.2685 33.2898 24.686C33.0653 30.0498 29.719 37.5977 22.9767 37.5977C20.1173 37.5977 17.7676 36.4424 15.9896 34.1627C12.7939 30.0685 12.2721 23.3288 13.4072 18.7762ZM10.7563 22.5071C10.8302 22.3955 10.9163 22.2919 11.0118 22.1991C10.9594 23.111 10.9567 24.0538 11.0145 25.0088C10.6487 24.651 10.4254 24.152 10.4254 23.602C10.4254 23.197 10.5465 22.8205 10.7563 22.5071Z" fill="url(#paint0_linear_636_211)"/>
<defs>
<linearGradient id="paint0_linear_636_211" x1="31.501" y1="1.30664" x2="31.501" y2="61.6926" gradientUnits="userSpaceOnUse">
<stop stop-color="#0D1B73"/>
<stop offset="1" stop-color="#6A0DAD"/>
</linearGradient>
</defs>
</svg>
