<svg width="64" height="64" viewBox="0 0 64 64" fill="none" xmlns="http://www.w3.org/2000/svg">
<path d="M34.2075 49.2398V59.3873C34.2075 60.386 33.3887 61.2085 32.3862 61.2085H25.2113V50.0623C25.2113 49.4923 24.75 49.0273 24.18 49.0273C23.61 49.0273 23.1488 49.491 23.1488 50.0623V61.2098H11.0588V50.0623C11.0588 49.4923 10.5975 49.0273 10.0275 49.0273C9.4575 49.0273 8.99625 49.491 8.99625 50.0623V61.2098H1.82125C0.81875 61.2085 0 60.3873 0 59.3873V49.2398C0 42.656 5.38625 37.271 11.9688 37.271H14.3575L13.305 48.5348C13.2875 48.7685 13.3438 48.9923 13.4613 49.176L16.2075 54.0485C16.4875 54.541 17.115 54.7148 17.6075 54.4385C17.7812 54.3398 17.9163 54.201 18.0037 54.0385L20.7712 49.1348C20.8775 48.9473 20.9163 48.7385 20.8988 48.536H20.9025L19.85 37.2723H22.2388C28.8213 37.271 34.2075 42.656 34.2075 49.2398ZM16.42 37.271C16.42 37.3023 16.4163 37.331 16.4125 37.3635L15.385 48.4085L17.1038 51.4523L18.8225 48.4085L17.795 37.3635C17.7913 37.3323 17.7875 37.3035 17.7875 37.271H16.42ZM17.1038 34.021C21.7563 34.021 25.5513 30.226 25.5513 25.5735C25.5513 20.9173 21.7563 17.1223 17.1038 17.1223C12.4513 17.1223 8.65625 20.9173 8.65625 25.5735C8.65625 30.226 12.4513 34.021 17.1038 34.021ZM64 5.85227V21.4035C64 23.0898 62.6213 24.4685 60.935 24.4685H46.265C46.0912 24.4685 45.9425 24.5323 45.8262 24.6598L39.835 31.2923C39.6575 31.4873 39.3887 31.5435 39.1475 31.4335C38.91 31.3198 38.7787 31.0798 38.815 30.8173L39.5975 25.1373C39.6225 24.9598 39.5763 24.801 39.4588 24.6698C39.3413 24.5348 39.19 24.4673 39.0163 24.4673H33.605C31.9187 24.4673 30.54 23.0885 30.54 21.4023V5.85227C30.54 4.16977 31.9187 2.79102 33.605 2.79102H60.935C62.6213 2.79102 64 4.16852 64 5.85227ZM58.7525 19.111C58.7525 18.541 58.2912 18.0798 57.7212 18.0798H55.755V10.7235C55.755 10.1535 55.295 9.69227 54.7238 9.69227H51.9487C51.3787 9.69227 50.9175 10.1535 50.9175 10.7235V18.0798H49.66V8.14477C49.66 7.57477 49.1963 7.11352 48.625 7.11352H45.85C45.2825 7.11352 44.8187 7.57477 44.8187 8.14477V18.0798H43.5612V13.1123C43.5612 12.5423 43.1012 12.081 42.53 12.081H39.755C39.185 12.081 38.72 12.5423 38.72 13.1123V18.0798H36.8175C36.2475 18.0798 35.7825 18.541 35.7825 19.111C35.7825 19.681 36.2463 20.146 36.8175 20.146H57.72C58.2913 20.146 58.7525 19.681 58.7525 19.111ZM46.885 18.0798H47.5938V9.17602H46.885V18.0798ZM40.7875 18.0798H41.4963V14.1435H40.7875V18.0798ZM52.98 18.0798H53.6925V11.7585H52.98V18.0798Z" fill="url(#paint0_linear_685_100)"/>
<defs>
<linearGradient id="paint0_linear_685_100" x1="32" y1="2.79102" x2="32" y2="61.2098" gradientUnits="userSpaceOnUse">
<stop stop-color="#0D1B73"/>
<stop offset="1" stop-color="#6A0DAD"/>
</linearGradient>
</defs>
</svg>
