<svg width="67" height="67" viewBox="0 0 67 67" fill="none" xmlns="http://www.w3.org/2000/svg">
<path fill-rule="evenodd" clip-rule="evenodd" d="M9.75417 24.5216L8.2519 26.7618L11.3486 29.8585L13.5887 28.3562L16.3885 29.5176L16.91 32.1621H21.2893L21.8108 29.5176L24.6105 28.3562L26.8507 29.8585L29.9473 26.7618L28.4451 24.5216L29.6065 21.7219L32.251 21.2004V16.8211L29.6065 16.2996L28.4451 13.4999L29.9473 11.2597L26.8507 8.16302L24.6105 9.66529L21.8108 8.50391L21.2893 5.85938H16.91L16.3885 8.50391L13.5887 9.66529L11.3486 8.16302L8.2519 11.2597L9.75417 13.4999L8.59292 16.2996L5.94839 16.8211V21.2004L8.59292 21.7219L9.75417 24.5216ZM19.0996 12.2932C22.7995 12.2932 25.8173 15.3108 25.8173 19.0107C25.8173 22.7107 22.7997 25.7284 19.0996 25.7284C15.3996 25.7284 12.3821 22.7108 12.3821 19.0107C12.3821 15.3107 15.3997 12.2932 19.0996 12.2932ZM36.5888 42.005C36.8712 47.1323 36.7775 51.8979 36.5709 56.7957C36.4683 59.2251 34.4698 61.1412 32.0382 61.1412H31.025V49.3135C31.025 48.6202 30.4629 48.058 29.7695 48.058C29.0761 48.058 28.514 48.62 28.514 49.3135V61.1412H9.68521V49.3135C9.68521 48.6202 9.12317 48.058 8.42974 48.058C7.73632 48.058 7.17428 48.62 7.17428 49.3135V61.1412H6.16103C3.7294 61.1412 1.73092 59.2253 1.62833 56.7957C1.42157 51.8979 1.328 47.1323 1.6104 42.005C1.83351 39.1029 2.48284 38.0122 4.30466 36.9441C6.15083 35.8616 9.82248 35.0801 12.4162 34.3783L12.7879 34.2748C13.7934 33.9947 14.7837 34.2055 15.5884 34.8702C16.1922 35.3691 16.8571 35.724 17.5478 35.9354L16.158 49.8323L19.0998 54.0431L22.0415 49.8323L20.6517 35.9354C21.3424 35.724 22.0073 35.3692 22.6111 34.8702C23.4156 34.2053 24.4062 33.9947 25.4116 34.2748L25.7833 34.3783C28.3769 35.0801 32.0487 35.8616 33.8947 36.9441C35.7167 38.0122 36.366 39.1029 36.589 42.005H36.5888ZM65.3193 58.4175L55.5403 41.4798C55.2082 40.9046 54.638 40.5755 53.9738 40.5755C53.3095 40.5755 52.7392 40.9047 52.4073 41.4798L42.6284 58.4175C42.2963 58.9927 42.2963 59.6511 42.6284 60.2263C42.9605 60.8015 43.5307 61.1307 44.1949 61.1307H63.7526C64.4169 61.1307 64.987 60.8015 65.3192 60.2263C65.6513 59.6511 65.6514 58.9927 65.3193 58.4175ZM54.8916 57.0709C54.8916 57.5774 54.4816 57.9875 53.977 57.9875C53.4662 57.9875 53.0562 57.5775 53.0562 57.0709V56.9284C53.0562 56.422 53.4662 56.0125 53.977 56.0125C54.4816 56.0125 54.8916 56.4219 54.8916 56.9284V57.0709ZM54.8916 53.5835C54.8916 54.0901 54.4816 54.5001 53.977 54.5001C53.4662 54.5001 53.0562 54.0901 53.0562 53.5835V47.0055C53.0562 46.4991 53.4662 46.0896 53.977 46.0896C54.4816 46.0896 54.8916 46.4989 54.8916 47.0055V53.5835ZM53.0564 19.9268H36.8462C36.3352 19.9268 35.9254 19.5168 35.9254 19.0102C35.9254 18.5037 36.3354 18.0945 36.8462 18.0945H53.9773C54.4819 18.0945 54.8919 18.5058 54.8919 19.0102V35.7881C54.8919 36.2933 54.4819 36.704 53.9773 36.704C53.4664 36.704 53.0564 36.2933 53.0564 35.7881V19.9268Z" fill="url(#paint0_linear_636_217)"/>
<defs>
<linearGradient id="paint0_linear_636_217" x1="33.5009" y1="5.85937" x2="33.5009" y2="61.1412" gradientUnits="userSpaceOnUse">
<stop stop-color="#0D1B73"/>
<stop offset="1" stop-color="#6A0DAD"/>
</linearGradient>
</defs>
</svg>
