<svg width="58" height="58" viewBox="0 0 58 58" fill="none" xmlns="http://www.w3.org/2000/svg">
<path fill-rule="evenodd" clip-rule="evenodd" d="M30.8759 44.3985V55.7257C30.8759 56.0397 30.6213 56.2943 30.3073 56.2943C29.0639 56.2943 26.2136 56.2943 26.2136 56.2943C25.224 56.2943 24.4212 55.4948 24.4212 54.5019C24.4212 49.1214 17.9124 46.4263 14.1083 50.2303C13.4088 50.93 12.274 50.93 11.5744 50.2303L7.71239 46.3715C7.01276 45.672 7.01276 44.5339 7.71239 43.8344C11.5132 40.0336 8.81815 33.5216 3.44086 33.5216C2.45111 33.5216 1.64844 32.7188 1.64844 31.7291V26.2712C1.64844 25.2816 2.45111 24.4788 3.44086 24.4788C8.81815 24.4788 11.5132 17.9668 7.71239 14.1659C7.01276 13.4664 7.01276 12.3317 7.71239 11.632L11.5744 7.77001C12.274 7.07037 13.4088 7.07037 14.1083 7.77001C17.9091 11.5708 24.4212 8.87577 24.4212 3.49848C24.4212 2.50873 25.224 1.70605 26.2136 1.70605H30.3073C30.6213 1.70605 30.8759 1.96069 30.8759 2.27468V13.6019L35.9828 8.18306C36.1298 8.02726 36.3332 7.93707 36.5474 7.93321L40.1969 7.86554C40.5196 6.78686 41.5203 5.99965 42.7033 5.99965C44.147 5.99965 45.319 7.1717 45.319 8.61533C45.319 10.059 44.147 11.231 42.7033 11.231C41.5543 11.231 40.5772 10.4885 40.2264 9.45747L36.9118 9.51888L32.7991 13.8826C32.1693 13.7991 31.5274 13.754 30.8759 13.7497C30.8421 13.7495 30.8083 13.7495 30.7746 13.7495C30.7619 13.7495 30.7493 13.7495 30.7367 13.7495C22.3312 13.7698 15.5229 20.5907 15.5229 29.001C15.5229 37.4113 22.3312 44.2305 30.7367 44.2509H30.7746C30.8083 44.2509 30.8421 44.2509 30.8759 44.2506C31.5274 44.2463 32.1694 44.2013 32.7991 44.1177L36.9118 48.4815L40.2264 48.5429C40.5772 47.5118 41.5543 46.7693 42.7033 46.7693C44.147 46.7693 45.319 47.9414 45.319 49.385C45.319 50.8286 44.147 52.0007 42.7033 52.0007C41.5203 52.0007 40.5196 51.2135 40.1969 50.1348L36.5474 50.0671C36.3332 50.0633 36.1298 49.9731 35.9828 49.8173L30.8759 44.3985ZM46.3523 17.7015H42.165L41.3453 18.0079C40.9081 17.5873 40.4457 17.1924 39.9607 16.8259L41.7422 16.1599C41.8314 16.1266 41.9258 16.1094 42.021 16.1094H46.3523C46.6895 15.0546 47.6784 14.2898 48.8445 14.2898C50.2881 14.2898 51.4602 15.4618 51.4602 16.9055C51.4602 18.3492 50.2881 19.5212 48.8445 19.5212C47.6784 19.5212 46.6895 18.7565 46.3523 17.7015ZM51.2425 29.7963H46.0041C46.0176 29.5329 46.0245 29.2678 46.0245 29.001C46.0245 28.7337 46.0176 28.4681 46.004 28.2041H51.2425C51.5797 27.1492 52.5686 26.3845 53.7347 26.3845C55.1783 26.3845 56.3504 27.5565 56.3504 29.0002C56.3504 30.4438 55.1783 31.6159 53.7347 31.6159C52.5686 31.6159 51.5797 30.8512 51.2425 29.7963ZM46.3523 41.891H42.021C41.9258 41.891 41.8314 41.8738 41.7422 41.8405L39.9613 41.1747C40.4462 40.8082 40.9086 40.4133 41.346 39.9927L42.165 40.2988H46.3523C46.6895 39.2439 47.6784 38.4792 48.8445 38.4792C50.2881 38.4792 51.4602 39.6511 51.4602 41.0949C51.4602 42.5385 50.2881 43.7106 48.8445 43.7106C47.6784 43.7106 46.6895 42.9458 46.3523 41.891ZM30.7746 15.3416C38.3181 15.3416 44.4323 21.4574 44.4323 29.001C44.4323 36.5445 38.3181 42.6587 30.7746 42.6587C23.2309 42.6587 17.1151 36.5445 17.1151 29.001C17.1151 21.4574 23.2309 15.3416 30.7746 15.3416ZM30.7746 17.9091C24.6481 17.9091 19.6827 22.8746 19.6827 29.001C19.6827 35.1257 24.6481 40.0928 30.7746 40.0928C36.8992 40.0928 41.8647 35.1257 41.8647 29.001C41.8647 22.8746 36.8992 17.9091 30.7746 17.9091ZM30.7746 19.5013C36.02 19.5013 40.2726 23.754 40.2726 29.001C40.2726 34.2464 36.02 38.5007 30.7746 38.5007C25.5275 38.5007 21.2748 34.2466 21.2748 29.001C21.2748 23.754 25.5275 19.5013 30.7746 19.5013ZM29.9644 23.3916C28.372 23.7304 27.2101 25.0456 27.2101 26.5746C27.2101 28.353 28.7817 29.8422 30.7746 29.8422C31.8397 29.8422 32.7452 30.5661 32.7452 31.5176C32.7452 32.4693 31.8397 33.1931 30.7746 33.1931C29.9686 33.1931 29.5505 32.8639 29.0041 32.3485C28.6845 32.047 28.1803 32.0618 27.8788 32.3815C27.5773 32.701 27.5921 33.2053 27.9116 33.5068C28.5908 34.1473 29.1659 34.5648 29.9938 34.7187L30.0109 35.4406C30.0214 35.8799 30.3864 36.228 30.8256 36.2175C31.2649 36.2072 31.6131 35.8421 31.6026 35.4028L31.586 34.7003C33.1762 34.3609 34.3374 33.0462 34.3374 31.5176C34.3374 29.7392 32.7653 28.25 30.7746 28.25C29.708 28.25 28.8022 27.5264 28.8022 26.5746C28.8022 25.623 29.708 24.8992 30.7746 24.8992C31.1137 24.8992 31.6109 25.0571 32.0264 25.2767C32.2522 25.396 32.4609 25.5247 32.5646 25.6826C32.8059 26.0497 33.2999 26.1519 33.6671 25.9106C34.0343 25.6693 34.1365 25.1752 33.8952 24.8081C33.6697 24.465 33.2611 24.1283 32.7703 23.869C32.3871 23.6666 31.9565 23.5095 31.5576 23.4135L31.5365 22.559C31.5256 22.1198 31.1602 21.772 30.721 21.7828C30.2818 21.7936 29.934 22.159 29.9448 22.5982L29.9644 23.3916Z" fill="url(#paint0_linear_688_81)"/>
<defs>
<linearGradient id="paint0_linear_688_81" x1="28.9994" y1="1.70605" x2="28.9994" y2="56.2943" gradientUnits="userSpaceOnUse">
<stop stop-color="#0D1B73"/>
<stop offset="1" stop-color="#6A0DAD"/>
</linearGradient>
</defs>
</svg>
