<svg width="71" height="71" viewBox="0 0 71 71" fill="none" xmlns="http://www.w3.org/2000/svg">
<path d="M27.8711 54.5665V50.2937H30.088V54.5665C31.3459 55.0224 32.2461 56.2253 32.2461 57.6404C32.2461 59.4447 30.7838 60.9109 28.9795 60.9109C27.1752 60.9109 25.7129 59.4447 25.7129 57.6404C25.7129 56.2253 26.6092 55.0224 27.871 54.5665H27.8711ZM53.4217 30.2346C57.8439 30.2346 61.4289 33.8195 61.4289 38.2377C61.4289 42.656 57.8439 46.2449 53.4217 46.2449C48.9994 46.2449 45.4185 42.66 45.4185 38.2377C45.4185 33.8155 48.9996 30.2346 53.4217 30.2346ZM58.4649 47.1373C64.0782 49.1931 68.0876 54.5823 68.0876 60.911H38.7595C38.7595 54.5823 42.765 49.1931 48.3783 47.1373C51.4994 48.9101 55.3477 48.9101 58.4649 47.1373ZM2.91016 15.7493H55.0057V10.0889H2.91016V15.7493ZM4.53359 48.0766H42.4506C43.6063 47.0861 44.9035 46.2488 46.3186 45.5923C45.7093 45.0027 45.1708 44.3385 44.7226 43.6111H25.8113C25.1981 43.6111 24.7027 43.1158 24.7027 42.5026V35.1047C24.7027 34.4915 25.1981 33.9962 25.8113 33.9962H31.908V28.1392C31.908 27.526 32.4072 27.0268 33.0165 27.0268H39.1172V21.3231C39.1172 20.7099 39.6126 20.2145 40.2258 20.2145H47.431C48.0442 20.2145 48.5435 20.7099 48.5435 21.3231V29.2517C49.994 28.4615 51.6567 28.0135 53.4217 28.0135V17.9661H4.53359V48.0765V48.0766ZM41.3343 41.3942H43.6929C42.4743 37.6284 43.5435 33.5639 46.3226 30.883V22.4316H41.3343V41.394V41.3942ZM14.6909 21.4687C14.6909 20.8594 15.1901 20.3602 15.8033 20.3602C16.4126 20.3602 16.9119 20.8594 16.9119 21.4687V23.0529C18.783 23.3831 20.6541 24.4916 22.0534 26.7244C22.3797 27.2393 22.2263 27.9233 21.7075 28.2495C21.1927 28.5717 20.5086 28.4185 20.1824 27.8996C19.2705 26.4491 18.099 25.6512 16.912 25.3328V31.0678C18.6888 31.5632 20.3712 32.141 21.3028 33.3439C23.8618 36.6458 20.8192 40.3094 16.912 40.8204V42.3534C16.912 42.9666 16.4128 43.4658 15.8035 43.4658C15.1902 43.4658 14.691 42.9666 14.691 42.3534V40.7732C12.8238 40.4391 10.9488 39.3306 9.54949 37.1017C9.22319 36.5828 9.38045 35.9028 9.89534 35.5765C10.4142 35.2502 11.0943 35.4036 11.4204 35.9223C12.3324 37.3728 13.5039 38.1708 14.6909 38.4932V32.7581C12.9141 32.2628 11.2356 31.681 10.3001 30.4782C7.74509 27.1802 10.7758 23.5206 14.6909 23.0057V21.4687ZM16.9119 33.3713V38.5758C17.9928 38.3714 19.1249 37.7818 19.6949 36.8817C20.1037 36.237 20.1351 35.4508 19.5534 34.6961C19.1092 34.1221 18.0872 33.7252 16.9119 33.3713ZM14.6909 30.4506V25.2461C13.6099 25.4505 12.4778 26.044 11.9079 26.9403C11.4991 27.585 11.4676 28.3711 12.0493 29.1257C12.4974 29.6997 13.5155 30.1007 14.6909 30.4506ZM26.9198 41.3942H31.9081V36.2173H26.9198V41.3942ZM34.1289 41.3942H39.1172V29.2478H34.1289V41.3942Z" fill="url(#paint0_linear_636_214)"/>
<defs>
<linearGradient id="paint0_linear_636_214" x1="35.4989" y1="10.0889" x2="35.4989" y2="60.911" gradientUnits="userSpaceOnUse">
<stop stop-color="#0D1B73"/>
<stop offset="1" stop-color="#6A0DAD"/>
</linearGradient>
</defs>
</svg>
