<svg width="54" height="54" viewBox="0 0 54 54" fill="none" xmlns="http://www.w3.org/2000/svg">
<path d="M31.5098 24.011V27.772C31.5098 28.1159 31.3696 28.427 31.1418 28.6537C30.9171 28.8784 30.6039 29.0187 30.26 29.0187H26.499C26.1584 29.0187 25.8472 28.8784 25.6205 28.6537L25.6173 28.6474C25.3927 28.4228 25.2524 28.1127 25.2524 27.771V24.01C25.2524 23.6661 25.3927 23.3518 25.6173 23.1282C25.8441 22.9015 26.1552 22.7602 26.499 22.7602H29.9911C28.5915 21.8394 27.3755 20.6645 26.4094 19.2976H6.26484C5.82187 19.2976 5.42215 19.1183 5.13422 18.8283C4.84418 18.5382 4.66488 18.1375 4.66488 17.6987V9.42152C4.66488 8.98172 4.84418 8.58094 5.13422 8.2909C5.42109 8.00086 5.82187 7.82156 6.26484 7.82156H24.5194C25.0277 6.10559 25.8736 4.53305 26.98 3.18199H3.47941C2.51965 3.18199 1.64953 3.57328 1.02199 4.20398C0.391289 4.83469 0 5.7048 0 6.66141V50.5227C0 51.4825 0.391289 52.3494 1.02199 52.9801C1.64953 53.6108 2.51965 54.0021 3.47941 54.0021H32.6974C33.654 54.0021 34.5241 53.6108 35.1548 52.9801C35.7824 52.3494 36.1747 51.4825 36.1747 50.5227V24.8959C34.4851 24.7556 32.8862 24.2979 31.436 23.586C31.4835 23.7178 31.5098 23.8612 31.5098 24.011ZM10.9202 48.3585C10.9202 48.7023 10.7831 49.0134 10.5553 49.2402C10.5279 49.2666 10.4984 49.294 10.4688 49.3151C10.2505 49.4975 9.97207 49.6051 9.67359 49.6051H5.91258C5.57191 49.6051 5.26078 49.4648 5.03402 49.237L5.03086 49.2402C4.80621 49.0134 4.66594 48.7023 4.66594 48.3585V44.5975C4.66594 44.2536 4.80621 43.9393 5.03086 43.7157C5.05828 43.6883 5.08781 43.662 5.11734 43.6377C5.33566 43.4584 5.6141 43.3477 5.91258 43.3477H9.67359C10.0143 43.3477 10.3254 43.4879 10.5521 43.7157H10.5553C10.7821 43.9404 10.9202 44.2536 10.9202 44.5975V48.3585ZM10.9202 38.0658C10.9202 38.4096 10.7831 38.7207 10.5553 38.9475C10.3307 39.1721 10.0174 39.3124 9.67359 39.3124H5.91258C5.57191 39.3124 5.26078 39.1721 5.03402 38.9475L5.03086 38.9443C4.80621 38.7176 4.66594 38.4064 4.66594 38.0658V34.3048C4.66594 33.9609 4.80621 33.6466 5.03086 33.423C5.25762 33.1963 5.56875 33.055 5.91258 33.055H9.67359C10.0143 33.055 10.3254 33.1952 10.5521 33.423L10.5553 33.4262L10.5585 33.4294C10.7831 33.6561 10.9202 33.9641 10.9202 34.3058V38.0658ZM10.9202 27.772C10.9202 28.1159 10.7831 28.427 10.5553 28.6537C10.3307 28.8784 10.0174 29.0187 9.67359 29.0187H5.91258C5.57191 29.0187 5.26078 28.8784 5.03402 28.6537L5.03086 28.6474C4.80621 28.4228 4.66594 28.1127 4.66594 27.771V24.01C4.66594 23.663 4.80621 23.3518 5.03086 23.1282C5.05828 23.0987 5.08781 23.0745 5.11734 23.0502C5.33566 22.8709 5.6141 22.7602 5.91258 22.7602H9.67359C10.0143 22.7602 10.3254 22.9004 10.5521 23.1282H10.5553C10.7821 23.3529 10.9202 23.663 10.9202 24.01V27.772ZM21.2171 48.3585C21.2171 48.7023 21.0769 49.0134 20.8491 49.2402C20.8216 49.2666 20.7921 49.294 20.7626 49.3151C20.5443 49.4975 20.269 49.6051 19.9673 49.6051H16.2063C15.8625 49.6051 15.5514 49.4648 15.3246 49.2402C15.2972 49.2128 15.2708 49.1832 15.2497 49.1537C15.0673 48.9354 14.9597 48.657 14.9597 48.3585V44.5975C14.9597 44.2536 15.1 43.9393 15.3246 43.7157C15.5514 43.489 15.8625 43.3477 16.2063 43.3477H19.9673C20.308 43.3477 20.6191 43.4879 20.8491 43.7157C21.0758 43.9404 21.2171 44.2536 21.2171 44.5975V48.3585ZM21.2171 38.0658C21.2171 38.4096 21.0769 38.7207 20.8491 38.9475C20.6244 39.1721 20.3112 39.3124 19.9673 39.3124H16.2063C15.8657 39.3124 15.5545 39.1721 15.3278 38.9475V38.9443L15.3246 38.9475C15.1 38.7207 14.9597 38.4096 14.9597 38.0658V34.3048C14.9597 33.9609 15.1 33.6466 15.3246 33.423C15.352 33.3967 15.3784 33.3724 15.4079 33.3482C15.6231 33.1657 15.9047 33.055 16.2063 33.055H19.9673C20.308 33.055 20.6191 33.1952 20.8459 33.423H20.8491V33.4262L20.8522 33.4294C21.0769 33.6561 21.2171 33.9641 21.2171 34.3058V38.0658ZM21.2171 27.772C21.2171 28.1159 21.0769 28.427 20.8491 28.6537C20.6244 28.8784 20.3112 29.0187 19.9673 29.0187H16.2063C15.8657 29.0187 15.5545 28.8784 15.3278 28.6537V28.6506L15.3246 28.6537C15.1 28.427 14.9597 28.1159 14.9597 27.772V24.011C14.9597 23.6704 15.1 23.3561 15.3278 23.1293H15.3246C15.5514 22.9025 15.8625 22.7612 16.2063 22.7612H19.9673C20.308 22.7612 20.6191 22.9015 20.8491 23.1293C21.0758 23.3539 21.2171 23.664 21.2171 24.011V27.772ZM31.5098 48.3585C31.5098 48.7023 31.3696 49.0134 31.1418 49.2402C31.1143 49.2666 31.0848 49.294 31.0553 49.3151C30.837 49.4975 30.5617 49.6051 30.26 49.6051H26.499C26.1552 49.6051 25.8441 49.4648 25.6173 49.2402C25.3927 49.0134 25.2524 48.7023 25.2524 48.3585V44.5975C25.2524 44.2536 25.3927 43.9393 25.6173 43.7157C25.6468 43.6883 25.6743 43.662 25.7038 43.6377C25.9221 43.4584 26.2005 43.3477 26.499 43.3477H30.26C30.6007 43.3477 30.915 43.4879 31.1418 43.7157C31.3685 43.9404 31.5098 44.2536 31.5098 44.5975V48.3585ZM31.5098 38.0658C31.5098 38.4096 31.3696 38.7207 31.1418 38.9475C30.9171 39.1721 30.6039 39.3124 30.26 39.3124H26.499C26.1584 39.3124 25.8472 39.1721 25.6205 38.9475L25.6173 38.9443C25.3927 38.7176 25.2524 38.4064 25.2524 38.0658V34.3048C25.2524 33.9609 25.3927 33.6498 25.6173 33.4262L25.6205 33.423C25.8472 33.1963 26.1584 33.055 26.499 33.055H30.26C30.6007 33.055 30.9118 33.1952 31.1386 33.423H31.1418V33.4262L31.1449 33.4294C31.3696 33.6561 31.5098 33.9641 31.5098 34.3058V38.0658ZM24.1344 9.53754C24.0268 10.2136 23.973 10.9097 23.973 11.6153C23.973 13.7616 24.4814 15.7887 25.3811 17.5827H6.37875V9.53754H24.1344ZM26.9663 45.0647H29.7949V47.8934H26.9663V45.0647ZM26.9663 34.7709H29.7949V37.5996H26.9663V34.7709ZM26.9663 27.3059V24.4772H29.7949V27.3059H26.9663ZM16.6725 24.4772H19.5012V27.3059H16.6725V24.4772ZM6.37875 34.7709H9.20742V37.5996H6.37875V34.7709ZM6.37875 24.4772H9.20742V27.3059H6.37875V24.4772ZM6.37875 45.0647H9.20742V47.8934H6.37875V45.0647ZM16.6725 34.7709H19.5012V37.5996H16.6725V34.7709ZM16.6725 45.0647H19.5012V47.8934H16.6725V45.0647ZM48.9164 11.6153C48.9164 5.20277 43.7147 0 37.3011 0C30.8855 0 25.6859 5.20172 25.6859 11.6153C25.6859 18.0309 30.8844 23.2305 37.3011 23.2305C43.7136 23.2305 48.9164 18.032 48.9164 11.6153ZM42.0694 16.8771C41.561 17.6818 40.8523 18.3484 40.0159 18.8114C39.2091 19.2596 38.282 19.5138 37.3011 19.5138C35.7465 19.5138 34.3354 18.8768 33.3134 17.8548C32.2914 16.8328 31.6575 15.4216 31.6575 13.8691V9.36457C31.6575 9.06293 31.6849 8.75812 31.7324 8.45016C31.783 8.14219 31.8579 7.84582 31.957 7.56211C32.1068 7.11387 32.5941 6.87445 33.0391 7.02738C33.4874 7.17715 33.7268 7.66441 33.577 8.10949C33.5085 8.31305 33.4547 8.51871 33.422 8.72543C33.3893 8.92582 33.3714 9.13781 33.3714 9.36562V13.8713C33.3714 14.9502 33.8143 15.9342 34.5284 16.6461C35.2403 17.358 36.2232 17.8 37.3032 17.8C37.9877 17.8 38.6332 17.6238 39.1932 17.3127C39.7765 16.9931 40.269 16.5259 40.6287 15.9616C40.8797 15.5609 41.4091 15.4448 41.8099 15.699C42.2075 15.9479 42.3236 16.4774 42.0694 16.8771ZM34.0305 13.8702V9.36457C34.0305 7.56527 35.5018 6.09082 37.3011 6.09082C39.1004 6.09082 40.5717 7.56422 40.5717 9.36457V13.8702C40.5717 14.7698 40.2036 15.5893 39.612 16.181C39.0203 16.7727 38.2008 17.1408 37.3011 17.1408C35.5018 17.1408 34.0305 15.6695 34.0305 13.8702ZM42.9458 13.8702C42.9458 14.3427 42.563 14.7255 42.0873 14.7255C41.6148 14.7255 41.232 14.3427 41.232 13.8702V9.36457C41.232 8.28246 40.789 7.3016 40.075 6.58758C39.363 5.87566 38.3801 5.43375 37.3001 5.43375C36.777 5.43375 36.2802 5.535 35.8267 5.72063C35.351 5.91469 34.9207 6.19945 34.5589 6.55172C34.2214 6.88078 33.6804 6.87129 33.3513 6.53379C33.0223 6.19629 33.0318 5.65523 33.3693 5.32617C33.8892 4.82098 34.502 4.41176 35.1844 4.13332C35.8393 3.86754 36.5534 3.72094 37.3011 3.72094C38.8526 3.72094 40.2638 4.3548 41.2889 5.3768C42.3109 6.39879 42.9448 7.80996 42.9448 9.36457V13.8702H42.9458ZM37.3011 15.4248C37.7283 15.4248 38.1175 15.2518 38.398 14.9671C38.6817 14.6865 38.8589 14.2973 38.8589 13.8702V9.36457C38.8589 8.50605 38.1565 7.8068 37.3011 7.8068C36.4426 7.8068 35.7434 8.50605 35.7434 9.36457V13.8702C35.7434 14.7245 36.4426 15.4248 37.3011 15.4248ZM36.4426 9.83707C36.4426 9.36457 36.8286 8.97855 37.3011 8.97855C37.7736 8.97855 38.1597 9.36457 38.1597 9.83707V13.3945C38.1597 13.8702 37.7736 14.253 37.3011 14.253C36.8286 14.253 36.4426 13.8702 36.4426 13.3945V9.83707ZM53.0329 38.3737C52.1807 38.8673 51.0806 38.571 50.5902 37.7188L44.6861 27.4915C44.4055 27.0105 44.5215 26.403 44.9286 26.0508L44.9202 26.0329L43.431 23.4563C43.9393 23.1905 44.4298 22.8941 44.8959 22.5714L46.3999 25.1754C46.4031 25.1838 46.4084 25.1902 46.4115 25.1965C46.9199 25.0172 47.5031 25.2207 47.7837 25.7048L53.6878 35.9321C54.1782 36.7833 53.885 37.8833 53.0329 38.3737Z" fill="url(#paint0_linear_683_83)"/>
<defs>
<linearGradient id="paint0_linear_683_83" x1="26.9627" y1="0" x2="26.9627" y2="54.0021" gradientUnits="userSpaceOnUse">
<stop stop-color="#0D1B73"/>
<stop offset="1" stop-color="#6A0DAD"/>
</linearGradient>
</defs>
</svg>
