<svg width="64" height="64" viewBox="0 0 64 64" fill="none" xmlns="http://www.w3.org/2000/svg">
<path d="M13.4805 11.8105V4.23047C13.2205 4.34047 12.9805 4.50047 12.7805 4.70047L4.74047 12.5005C4.53047 12.7105 4.35047 12.9505 4.23047 13.2205H12.0805C12.8505 13.2205 13.4805 12.5905 13.4805 11.8105Z" fill="url(#paint0_linear_683_93)"/>
<path d="M12.3017 23.4301C12.3017 23.2401 12.1417 23.0801 11.9517 23.0801H9.61172C9.42172 23.0801 9.26172 23.2401 9.26172 23.4301V25.3801H12.2917V23.4301H12.3017Z" fill="url(#paint1_linear_683_93)"/>
<path d="M26.1194 23.0901H25.6094L25.6494 29.7001L26.3094 29.6601C27.2994 29.6601 28.2194 29.2201 28.8494 28.4601C29.4894 27.6901 29.7294 26.7101 29.5294 25.7001C29.2394 24.2101 27.7694 23.0801 26.1194 23.0801V23.0901Z" fill="url(#paint2_linear_683_93)"/>
<path d="M32.99 43.4898C32.99 37.6398 37.75 32.8798 43.6 32.8798C44.37 32.8798 45.12 32.9698 45.85 33.1198V6.34977C45.85 5.06977 44.8 4.00977 43.51 4.00977H15.45C15.45 4.07977 15.48 4.14977 15.48 4.22977V11.8098C15.48 13.6898 13.95 15.2198 12.08 15.2198H4.23C4.15 15.2198 4.08 15.1998 4 15.1898V57.6498C4 58.9298 5.05 59.9898 6.34 59.9898H43.52C44.8 59.9898 45.86 58.9398 45.86 57.6498V53.8598C45.14 54.0198 44.38 54.0998 43.61 54.0998C37.76 54.0998 33 49.3398 33 43.4898H32.99ZM35.3 13.8498C35.3 13.2998 35.75 12.8498 36.3 12.8498H40.77C41.32 12.8498 41.77 13.2998 41.77 13.8498C41.77 14.3998 41.32 14.8498 40.77 14.8498H36.3C35.75 14.8498 35.3 14.3998 35.3 13.8498ZM42.98 22.0798C42.98 22.6298 42.53 23.0798 41.98 23.0798H40.36V30.6598C40.36 31.2098 39.91 31.6598 39.36 31.6598C38.81 31.6598 38.36 31.2098 38.36 30.6598V23.0798H36.74C36.19 23.0798 35.74 22.6298 35.74 22.0798C35.74 21.5298 36.19 21.0798 36.74 21.0798H41.99C42.54 21.0798 42.99 21.5298 42.99 22.0798H42.98ZM29.53 8.55977H40.76C41.31 8.55977 41.76 9.00977 41.76 9.55977C41.76 10.1098 41.31 10.5598 40.76 10.5598H29.53C28.98 10.5598 28.53 10.1098 28.53 9.55977C28.53 9.00977 28.98 8.55977 29.53 8.55977ZM15.45 22.0798C15.45 21.5298 15.9 21.0798 16.45 21.0798C17 21.0798 17.45 21.5298 17.45 22.0798V29.3198C17.45 29.5098 17.61 29.6698 17.8 29.6698H20.14C20.33 29.6698 20.49 29.5098 20.49 29.3198V22.0798C20.49 21.5298 20.94 21.0798 21.49 21.0798C22.04 21.0798 22.49 21.5298 22.49 22.0798V29.3198C22.49 30.6098 21.44 31.6698 20.14 31.6698H17.8C16.51 31.6698 15.45 30.6198 15.45 29.3198V22.0798ZM9.26 30.6698C9.26 31.2198 8.81 31.6698 8.26 31.6698C7.71 31.6698 7.26 31.2198 7.26 30.6698V23.4298C7.26 22.1398 8.31 21.0798 9.61 21.0798H11.95C13.24 21.0798 14.3 22.1298 14.3 23.4298V30.6698C14.3 31.2198 13.85 31.6698 13.3 31.6698C12.75 31.6698 12.3 31.2198 12.3 30.6698V27.3798H9.27V30.6698H9.26ZM24.15 53.6498C23.77 54.0398 23.13 54.0598 22.74 53.6698L20.42 51.4098L18.1 53.6698C17.91 53.8598 17.65 53.9498 17.4 53.9498C17.15 53.9498 16.9 53.8598 16.7 53.6698L14.38 51.4098L12.06 53.6698C11.66 54.0598 11.03 54.0498 10.65 53.6498C10.27 53.2498 10.27 52.6198 10.67 52.2398L13.69 49.2998C14.08 48.9198 14.7 48.9198 15.08 49.2998L17.4 51.5598L19.72 49.2998C20.11 48.9198 20.73 48.9198 21.11 49.2998L24.13 52.2398C24.53 52.6198 24.53 53.2598 24.15 53.6498ZM30.39 29.7298C29.38 30.9498 27.89 31.6598 26.31 31.6598H25.61C24.53 31.6598 23.65 30.7798 23.65 29.6998V23.0498C23.65 21.9698 24.53 21.0898 25.61 21.0898H26.12C28.75 21.0898 31.01 22.8698 31.49 25.3198C31.8 26.8998 31.4 28.5098 30.39 29.7398V29.7298ZM32.79 22.0898C32.79 21.5398 33.24 21.0898 33.79 21.0898C34.34 21.0898 34.79 21.5398 34.79 22.0898V30.6698C34.79 31.2198 34.34 31.6698 33.79 31.6698C33.24 31.6698 32.79 31.2198 32.79 30.6698V22.0898Z" fill="url(#paint3_linear_683_93)"/>
<path d="M59.37 55.0199L55.46 51.1099C54.66 50.3099 53.38 50.2799 52.54 51.0099L50.36 48.8299C51.52 47.3599 52.22 45.5099 52.22 43.4899C52.22 38.7299 48.36 34.8799 43.61 34.8799C38.86 34.8799 35 38.7399 35 43.4899C35 48.2499 38.86 52.0999 43.61 52.0999C45.63 52.0999 47.48 51.3999 48.95 50.2399L51.13 52.4199C50.4 53.2699 50.43 54.5399 51.23 55.3399L55.14 59.2499C55.98 60.0899 57.34 60.0899 58.18 59.2499L59.37 58.0599C60.21 57.2199 60.21 55.8599 59.37 55.0199ZM43.6 48.4999C40.83 48.4999 38.59 46.2599 38.59 43.4899C38.59 40.7199 40.83 38.4799 43.6 38.4799C46.37 38.4799 48.61 40.7199 48.61 43.4899C48.61 46.2599 46.37 48.4999 43.6 48.4999Z" fill="url(#paint4_linear_683_93)"/>
<defs>
<linearGradient id="paint0_linear_683_93" x1="8.85547" y1="4.23047" x2="8.85547" y2="13.2205" gradientUnits="userSpaceOnUse">
<stop stop-color="#0D1B73"/>
<stop offset="1" stop-color="#6A0DAD"/>
</linearGradient>
<linearGradient id="paint1_linear_683_93" x1="10.7817" y1="23.0801" x2="10.7817" y2="25.3801" gradientUnits="userSpaceOnUse">
<stop stop-color="#0D1B73"/>
<stop offset="1" stop-color="#6A0DAD"/>
</linearGradient>
<linearGradient id="paint2_linear_683_93" x1="27.6037" y1="23.0801" x2="27.6037" y2="29.7001" gradientUnits="userSpaceOnUse">
<stop stop-color="#0D1B73"/>
<stop offset="1" stop-color="#6A0DAD"/>
</linearGradient>
<linearGradient id="paint3_linear_683_93" x1="24.93" y1="4.00977" x2="24.93" y2="59.9898" gradientUnits="userSpaceOnUse">
<stop stop-color="#0D1B73"/>
<stop offset="1" stop-color="#6A0DAD"/>
</linearGradient>
<linearGradient id="paint4_linear_683_93" x1="47.5" y1="34.8799" x2="47.5" y2="59.8799" gradientUnits="userSpaceOnUse">
<stop stop-color="#0D1B73"/>
<stop offset="1" stop-color="#6A0DAD"/>
</linearGradient>
</defs>
</svg>
