<svg width="55" height="55" viewBox="0 0 55 55" fill="none" xmlns="http://www.w3.org/2000/svg">
<path d="M28.8979 27.1541V41.5476H23.1638V27.1541H28.8979ZM10.213 27.1541V41.5476H15.9472V27.1541H10.213ZM41.8444 35.1656V27.1541H36.1103V37.1604C37.7431 35.9938 39.7132 35.2698 41.8444 35.1656ZM8.34063 45.0957H31.6286C31.677 44.4866 31.7747 43.8926 31.9176 43.3179H8.34063V45.0957ZM44.631 23.6038H7.42646V25.3816H44.631V23.6038ZM48.453 18.8472L37.2403 11.6982L35.8063 10.7819C34.7191 15.1701 30.7542 18.425 26.0287 18.425C21.3032 18.425 17.3383 15.1701 16.2544 10.7819L14.8171 11.6982L3.60547 18.8472V21.8346H48.453V18.8472ZM5.8248 46.8682C4.60342 46.8682 3.60547 47.8672 3.60547 49.0875V51.3068H33.0294C32.2645 49.9791 31.7747 48.472 31.6383 46.8671H5.8248V46.8682ZM42.3805 47.8876C43.1722 47.8876 43.8908 47.5653 44.4118 47.0443C44.9328 46.5233 45.2519 45.8079 45.2519 45.013C45.2519 44.2181 44.9317 43.4994 44.4118 42.9816C43.8908 42.4606 43.1722 42.1384 42.3805 42.1384C41.5855 42.1384 40.8669 42.4606 40.3459 42.9816C39.8281 43.4994 39.5059 44.2181 39.5059 45.013C39.5059 45.8079 39.8281 46.5233 40.3459 47.0443C40.868 47.5653 41.5866 47.8876 42.3805 47.8876ZM46.4066 50.629C45.9587 49.977 45.3561 49.4388 44.6557 49.0639C43.9832 49.442 43.2065 49.6579 42.3815 49.6579C41.5565 49.6579 40.7799 49.442 40.1074 49.0639C39.4006 49.4388 38.8044 49.977 38.3629 50.6172C37.8935 51.2993 37.5959 52.0996 37.5229 52.9558L37.4777 53.4982C38.8903 54.4146 40.5747 54.9474 42.3837 54.9474C44.1927 54.9474 45.876 54.4146 47.2864 53.4982L47.2402 52.9558C47.165 52.0996 46.8696 51.3047 46.4066 50.629ZM42.3805 36.923C37.4015 36.923 33.3667 40.9578 33.3667 45.9368C33.3667 48.342 34.3109 50.5291 35.8481 52.1458C36.0222 51.2295 36.3874 50.368 36.9073 49.6149C37.3854 48.921 37.9912 48.3173 38.698 47.8457C38.0954 47.0626 37.7355 46.0797 37.7355 45.0141C37.7355 43.7325 38.2533 42.5724 39.0934 41.7313C39.9334 40.8912 41.0968 40.3702 42.3794 40.3702C43.6609 40.3702 44.8211 40.8912 45.6622 41.7313C46.5022 42.5713 47.0232 43.7314 47.0232 45.0141C47.0232 46.0797 46.6634 47.0637 46.0575 47.8489C46.7665 48.3237 47.382 48.9296 47.8633 49.6332C48.3714 50.3766 48.7377 51.2284 48.9106 52.1426C50.4457 50.5291 51.3889 48.342 51.3889 45.9368C51.391 40.9578 47.3563 36.923 42.3805 36.923ZM17.7282 8.3542C17.7282 3.7834 21.4579 0.0537109 26.0287 0.0537109C30.5995 0.0537109 34.3292 3.7834 34.3292 8.3542C34.3292 12.925 30.5995 16.6547 26.0287 16.6547C21.4579 16.6547 17.7282 12.925 17.7282 8.3542ZM23.2486 6.46035C23.2486 7.2252 23.5623 7.92236 24.065 8.42402C24.571 8.92676 25.2649 9.24043 26.0287 9.24043C26.3059 9.24043 26.5583 9.35322 26.7409 9.53584C26.9235 9.71846 27.0363 9.9709 27.0363 10.248C27.0363 10.5252 26.9235 10.7744 26.7409 10.957C26.5583 11.1429 26.3059 11.2557 26.0287 11.2557C25.8128 11.2557 25.6151 11.1891 25.4497 11.073C25.2789 10.9517 25.1457 10.7809 25.0748 10.5854C24.9104 10.1256 24.4045 9.88818 23.9479 10.0525C23.4882 10.2169 23.2508 10.7196 23.4151 11.1794C23.6096 11.724 23.9694 12.1902 24.4324 12.5189C24.6483 12.6715 24.889 12.7929 25.1414 12.8777V13.359C25.1414 13.8488 25.5378 14.2452 26.0276 14.2452C26.5175 14.2452 26.9139 13.8488 26.9139 13.359V12.881C27.3253 12.7413 27.6905 12.5093 27.9913 12.2106C28.494 11.7047 28.8077 11.0107 28.8077 10.247C28.8077 9.48213 28.494 8.78496 27.9913 8.2833C27.4886 7.78164 26.7914 7.46689 26.0276 7.46689C25.7505 7.46689 25.5013 7.3541 25.3154 7.17148C25.1328 6.98887 25.02 6.73643 25.02 6.45928C25.02 6.18213 25.1328 5.93291 25.3154 5.75029C25.5013 5.56445 25.7505 5.45166 26.0276 5.45166C26.2436 5.45166 26.4444 5.51826 26.6066 5.63428C26.7807 5.75566 26.9106 5.92647 26.9815 6.12197C27.1459 6.58174 27.6519 6.81914 28.1084 6.65479C28.5682 6.49043 28.8056 5.9877 28.6412 5.52793C28.4468 4.9833 28.0869 4.51709 27.6239 4.18838C27.408 4.03584 27.1706 3.91445 26.9149 3.82637V3.34834C26.9149 2.8585 26.5186 2.46211 26.0287 2.46211C25.5389 2.46211 25.1425 2.8585 25.1425 3.34834V3.82637C24.7343 3.96602 24.3658 4.19805 24.065 4.49668C23.5623 5.00156 23.2486 5.69658 23.2486 6.46035Z" fill="url(#paint0_linear_636_222)"/>
<defs>
<linearGradient id="paint0_linear_636_222" x1="27.4972" y1="0.0537109" x2="27.4972" y2="54.9474" gradientUnits="userSpaceOnUse">
<stop stop-color="#0D1B73"/>
<stop offset="1" stop-color="#6A0DAD"/>
</linearGradient>
</defs>
</svg>
