<svg width="64" height="64" viewBox="0 0 64 64" fill="none" xmlns="http://www.w3.org/2000/svg">
<path d="M20.9517 50.0602L20.9117 49.7202L18.9117 50.7202C18.6317 50.8602 18.3217 50.9302 18.0217 50.9302C17.7717 50.9302 17.5317 50.8902 17.3017 50.7902C16.7717 50.5902 16.3617 50.1702 16.1617 49.6402L12.8917 41.1402C12.8317 41.0002 12.8217 40.8502 12.8017 40.7002C11.3717 40.9002 10.0017 41.3902 8.77172 42.1302C5.82172 43.9102 4.01172 47.1102 4.01172 50.5602V60.0002H19.4617C19.4317 59.8102 19.4217 59.6102 19.4617 59.4102L20.9717 50.0602H20.9517Z" fill="url(#paint0_linear_683_85)"/>
<path d="M38.0008 40.8402C37.7408 40.7802 37.4808 40.7402 37.2108 40.7002C37.1908 40.8502 37.1708 41.0002 37.1208 41.1402L33.8508 49.6502C33.6508 50.1702 33.2308 50.5902 32.7108 50.7902C32.4708 50.8802 32.2308 50.9302 31.9808 50.9302C31.6808 50.9302 31.3708 50.8602 31.0908 50.7202L29.0908 49.7202L29.0508 50.0602L30.5508 59.4102C30.5908 59.6102 30.5808 59.8102 30.5508 60.0002H38.5408C38.2008 59.4102 38.0008 58.7302 38.0008 58.0002V40.8402Z" fill="url(#paint1_linear_683_85)"/>
<path d="M12 26H12.02C12.16 30.95 14.96 35.27 19 37.46V37.59L25 42.8L31 37.59V37.54C32.13 36.95 33.17 36.2 34.11 35.28C36.62 32.82 38 29.52 38 26C38.83 26 39.58 25.66 40.12 25.12C40.66 24.58 41 23.83 41 23C41 21.69 40.17 20.58 39 20.18V18C39 10.27 32.73 4 25 4C17.27 4 11 10.27 11 18V20.18C9.83 20.58 9 21.69 9 23C9 23.83 9.34 24.58 9.88 25.12C10.42 25.66 11.17 26 12 26ZM19.95 19.24C21.72 18.73 23.42 17.98 25 17C28.16 18.96 31.8 20 35.52 20H36V26C36 28.98 34.83 31.76 32.71 33.85C30.59 35.93 27.79 37.03 24.8 37C18.85 36.89 14.01 31.78 14.01 25.6V20H14.49C16.35 20 18.19 19.74 19.96 19.24H19.95Z" fill="url(#paint2_linear_683_85)"/>
<path d="M25 45.4496L17.12 38.5996L14.75 40.4296L18.02 48.9296L22.52 46.6796L22.97 50.1096H27.03L27.48 46.6796L31.98 48.9296L35.25 40.4296L32.88 38.5996L25 45.4496Z" fill="url(#paint3_linear_683_85)"/>
<path d="M58 34H42C40.9 34 40 34.9 40 36V58C40 59.1 40.9 60 42 60H58C59.1 60 60 59.1 60 58V36C60 34.9 59.1 34 58 34ZM44 38H56V43H44V38ZM46 57H44C43.45 57 43 56.55 43 56C43 55.45 43.45 55 44 55H46C46.55 55 47 55.45 47 56C47 56.55 46.55 57 46 57ZM46 53H44C43.45 53 43 52.55 43 52C43 51.45 43.45 51 44 51H46C46.55 51 47 51.45 47 52C47 52.55 46.55 53 46 53ZM46 49H44C43.45 49 43 48.55 43 48C43 47.45 43.45 47 44 47H46C46.55 47 47 47.45 47 48C47 48.55 46.55 49 46 49ZM51 57H49C48.45 57 48 56.55 48 56C48 55.45 48.45 55 49 55H51C51.55 55 52 55.45 52 56C52 56.55 51.55 57 51 57ZM51 53H49C48.45 53 48 52.55 48 52C48 51.45 48.45 51 49 51H51C51.55 51 52 51.45 52 52C52 52.55 51.55 53 51 53ZM51 49H49C48.45 49 48 48.55 48 48C48 47.45 48.45 47 49 47H51C51.55 47 52 47.45 52 48C52 48.55 51.55 49 51 49ZM56 57H54C53.45 57 53 56.55 53 56C53 55.45 53.45 55 54 55H56C56.55 55 57 55.45 57 56C57 56.55 56.55 57 56 57ZM56 53H54C53.45 53 53 52.55 53 52C53 51.45 53.45 51 54 51H56C56.55 51 57 51.45 57 52C57 52.55 56.55 53 56 53ZM56 49H54C53.45 49 53 48.55 53 48C53 47.45 53.45 47 54 47H56C56.55 47 57 47.45 57 48C57 48.55 56.55 49 56 49Z" fill="url(#paint4_linear_683_85)"/>
<path d="M27.0297 52.1101H22.9797C22.8697 52.1101 22.7597 52.1001 22.6597 52.0801L21.4297 59.7301H28.5897L27.3597 52.0801C27.2497 52.1001 27.1497 52.1101 27.0397 52.1101H27.0297Z" fill="url(#paint5_linear_683_85)"/>
<defs>
<linearGradient id="paint0_linear_683_85" x1="12.4917" y1="40.7002" x2="12.4917" y2="60.0002" gradientUnits="userSpaceOnUse">
<stop stop-color="#0D1B73"/>
<stop offset="1" stop-color="#6A0DAD"/>
</linearGradient>
<linearGradient id="paint1_linear_683_85" x1="33.7958" y1="40.7002" x2="33.7958" y2="60.0002" gradientUnits="userSpaceOnUse">
<stop stop-color="#0D1B73"/>
<stop offset="1" stop-color="#6A0DAD"/>
</linearGradient>
<linearGradient id="paint2_linear_683_85" x1="25" y1="4" x2="25" y2="42.8" gradientUnits="userSpaceOnUse">
<stop stop-color="#0D1B73"/>
<stop offset="1" stop-color="#6A0DAD"/>
</linearGradient>
<linearGradient id="paint3_linear_683_85" x1="25" y1="38.5996" x2="25" y2="50.1096" gradientUnits="userSpaceOnUse">
<stop stop-color="#0D1B73"/>
<stop offset="1" stop-color="#6A0DAD"/>
</linearGradient>
<linearGradient id="paint4_linear_683_85" x1="50" y1="34" x2="50" y2="60" gradientUnits="userSpaceOnUse">
<stop stop-color="#0D1B73"/>
<stop offset="1" stop-color="#6A0DAD"/>
</linearGradient>
<linearGradient id="paint5_linear_683_85" x1="25.0097" y1="52.0801" x2="25.0097" y2="59.7301" gradientUnits="userSpaceOnUse">
<stop stop-color="#0D1B73"/>
<stop offset="1" stop-color="#6A0DAD"/>
</linearGradient>
</defs>
</svg>
