<svg width="63" height="63" viewBox="0 0 63 63" fill="none" xmlns="http://www.w3.org/2000/svg">
<g clip-path="url(#clip0_636_202)">
<path d="M40.4224 0.615234C29.0492 0.615234 19.6065 7.84547 18.6615 17.1663C14.681 18.5407 11.814 22.3219 11.814 26.7627C11.814 30.7826 14.1629 34.2636 17.559 35.9075C6.9684 38.1642 -0.176933 48.1458 0.833282 58.6663C1.03016 60.7163 2.73189 62.2617 4.7917 62.2617H39.139C41.1988 62.2617 42.9005 60.7163 43.0974 58.6663C44.1076 48.1409 36.9574 38.163 26.3717 35.9075C27.3302 35.4437 28.2026 34.8321 28.9655 34.1049C31.9223 35.6147 35.2987 36.524 38.7649 36.7332C38.7723 37.1245 38.7502 37.5601 38.76 37.9169C38.824 40.4111 41.5716 41.6821 43.4727 40.2708H43.4739C43.4739 40.2708 43.6351 40.1367 49.1526 35.5507C49.5155 35.2492 49.9351 34.9958 50.4015 34.7977C58.1165 31.5135 62.2484 25.1496 62.2632 18.7031C62.2866 8.35488 52.0368 0.615234 40.4224 0.615234ZM24.8508 52.4155L22.5166 55.0401C22.225 55.3686 21.7094 55.3736 21.4141 55.0401L19.0799 52.4155C18.9372 52.2543 18.872 52.0414 18.899 51.8286L20.1849 41.9701H23.7458L25.0317 51.8286C25.0587 52.0414 24.9935 52.2543 24.8508 52.4155ZM23.9033 40.4935H20.0274L18.6406 37.2032C20.8419 36.8255 23.0851 36.8255 25.2901 37.2032L23.9033 40.4935ZM49.8232 33.4392C49.2252 33.6939 48.6825 34.0225 48.2088 34.415L42.5782 39.0969C41.6012 39.8032 40.2341 39.108 40.2366 37.8984C40.2366 37.0789 40.2489 37.0703 40.2403 36.7012C40.2243 35.9432 39.6177 35.312 38.8585 35.2652C35.7294 35.0708 32.6852 34.2784 29.9929 32.9655C31.3218 31.249 32.1167 29.0981 32.1167 26.7627C32.1167 20.5008 26.4529 15.6651 20.1972 16.7688C21.3772 8.46193 30.0335 2.0918 40.4224 2.0918C51.6516 2.0918 60.7866 9.54352 60.7866 18.7031C60.7866 24.9133 56.5858 30.5599 49.8232 33.4392Z" fill="url(#paint0_linear_636_202)"/>
<path d="M50.2051 10.459C45.6597 10.459 41.9609 14.1578 41.9609 18.7031C41.9609 23.2485 45.6597 26.9473 50.2051 26.9473C54.7504 26.9473 58.4492 23.2485 58.4492 18.7031C58.4492 14.1578 54.7504 10.459 50.2051 10.459ZM49.9196 17.9648H50.5312C51.7641 17.9648 52.7669 18.9677 52.7669 20.2006C52.7669 21.2933 51.9794 22.2038 50.9434 22.3982V22.9384C50.9434 23.3469 50.6124 23.6767 50.2051 23.6767C49.7978 23.6767 49.4668 23.3469 49.4668 22.9384V22.4302C48.4677 22.3502 47.6789 21.5135 47.6789 20.4935C47.6789 20.0862 48.0087 19.7552 48.4172 19.7552C48.8257 19.7552 49.1555 20.0862 49.1555 20.4935C49.1555 20.7519 49.3647 20.961 49.6218 20.961H50.5312C50.9495 20.961 51.2904 20.6202 51.2904 20.2006C51.2904 19.781 50.9495 19.4414 50.5312 19.4414H49.9196C48.6854 19.4414 47.6826 18.4386 47.6826 17.2056C47.6826 16.1265 48.4504 15.2246 49.4668 15.0154V14.4679C49.4668 14.0593 49.7978 13.7296 50.2051 13.7296C50.6124 13.7296 50.9434 14.0593 50.9434 14.4679V14.9748C51.961 15.0351 52.7718 15.8792 52.7718 16.9128C52.7718 17.3201 52.4408 17.6511 52.0336 17.6511C51.6263 17.6511 51.2953 17.3201 51.2953 16.9128C51.2953 16.6544 51.0849 16.4452 50.8277 16.4452H49.9196C49.5 16.4452 49.1592 16.7861 49.1592 17.2056C49.1592 17.6252 49.5 17.9648 49.9196 17.9648Z" fill="url(#paint1_linear_636_202)"/>
<path d="M38.2676 12.2432H30.2695C29.0463 12.2432 28.0547 13.2348 28.0547 14.458V15.4424C28.0547 16.6656 29.0463 17.6572 30.2695 17.6572H38.2676C39.4908 17.6572 40.4824 16.6656 40.4824 15.4424V14.458C40.4824 13.2348 39.4908 12.2432 38.2676 12.2432Z" fill="url(#paint2_linear_636_202)"/>
<path d="M38.2695 19.749H35.5625C34.3393 19.749 33.3477 20.7406 33.3477 21.9639V22.9482C33.3477 24.1715 34.3393 25.1631 35.5625 25.1631H38.2695C39.4928 25.1631 40.4844 24.1715 40.4844 22.9482V21.9639C40.4844 20.7406 39.4928 19.749 38.2695 19.749Z" fill="url(#paint3_linear_636_202)"/>
</g>
<defs>
<linearGradient id="paint0_linear_636_202" x1="31.5008" y1="0.615234" x2="31.5008" y2="62.2617" gradientUnits="userSpaceOnUse">
<stop stop-color="#0D1B73"/>
<stop offset="1" stop-color="#6A0DAD"/>
</linearGradient>
<linearGradient id="paint1_linear_636_202" x1="50.2051" y1="10.459" x2="50.2051" y2="26.9473" gradientUnits="userSpaceOnUse">
<stop stop-color="#0D1B73"/>
<stop offset="1" stop-color="#6A0DAD"/>
</linearGradient>
<linearGradient id="paint2_linear_636_202" x1="34.2686" y1="12.2432" x2="34.2686" y2="17.6572" gradientUnits="userSpaceOnUse">
<stop stop-color="#0D1B73"/>
<stop offset="1" stop-color="#6A0DAD"/>
</linearGradient>
<linearGradient id="paint3_linear_636_202" x1="36.916" y1="19.749" x2="36.916" y2="25.1631" gradientUnits="userSpaceOnUse">
<stop stop-color="#0D1B73"/>
<stop offset="1" stop-color="#6A0DAD"/>
</linearGradient>
<clipPath id="clip0_636_202">
<rect width="63" height="63" fill="white"/>
</clipPath>
</defs>
</svg>
